<?xml version="1.0" encoding="iso-8859-1"?>
<!-- Generator: Adobe Illustrator 19.0.0, SVG Export Plug-In . SVG Version: 6.00 Build 0)  -->
<svg version="1.1" id="Layer_1" xmlns="http://www.w3.org/2000/svg" xmlns:xlink="http://www.w3.org/1999/xlink" x="0px" y="0px"
	 viewBox="0 0 512 512" style="enable-background:new 0 0 512 512;" xml:space="preserve">
<g>
	<g>
		<path d="M511.988,353.827L511.988,353.827c0-1.133-0.214-2.27-0.675-3.341l-75.834-176.531c0.38-0.067,0.763-0.121,1.142-0.196
			c22.162-4.404,33.876-22.36,39.8-36.649c1.083-2.612,0.79-5.592-0.78-7.943c-1.57-2.351-4.211-3.763-7.038-3.763h-5.176
			c-4.676,0-8.465,3.79-8.465,8.465c0,1.914,0.635,3.68,1.708,5.098c-5.985,10.187-13.811,16.293-23.348,18.188
			c-18.899,3.754-42.16-9.187-55.775-22.802c-34.481-34.48-91.746-42.295-113.083-44.038V72.72
			c9.493-3.465,16.288-12.583,16.288-23.26c0-13.647-11.103-24.751-24.751-24.751c-13.648,0-24.752,11.103-24.752,24.751
			c0,10.675,6.794,19.793,16.285,23.259v17.61c-7.99,0.668-21.065,2.199-36.145,5.668c-33.248,7.649-59.132,20.552-76.933,38.354
			c-13.615,13.615-36.875,26.559-55.775,22.802c-9.536-1.895-17.363-8.001-23.348-18.188c1.071-1.418,1.708-3.184,1.708-5.098
			c0-4.675-3.789-8.465-8.465-8.465h-5.176c-2.827,0-5.469,1.412-7.038,3.763c-1.571,2.351-1.863,5.332-0.78,7.943
			c5.924,14.288,17.638,32.244,39.8,36.649c0.379,0.076,0.762,0.13,1.142,0.196L0.687,350.486c-0.46,1.072-0.675,2.209-0.675,3.341
			H0v10.088c0,26.929,21.908,48.838,48.837,48.838h77.107c26.929,0,48.837-21.909,48.837-48.838v-10.088h-0.012
			c0-1.132-0.214-2.27-0.675-3.341l-76.07-177.083c8.145-1.66,16.204-4.791,23.718-8.826l0.012,0.026
			c59.288-27.157,107.273-32.403,125.779-33.388v204.252h-3.886c-11.188,0-20.292,9.102-20.292,20.29v38.529h-0.603
			c-16.791,0-30.449,13.66-30.449,30.449v4.87h-49.911c-20.678,0-37.501,16.822-37.501,37.5v11.72c0,4.675,3.789,8.465,8.465,8.465
			h285.287c4.676,0,8.465-3.79,8.465-8.465v-11.721c0-20.678-16.822-37.5-37.5-37.5h-49.911v-4.87
			c0-16.789-13.66-30.449-30.449-30.449h-0.604v-38.529c0-11.188-9.101-20.291-20.29-20.291h-3.89V131.2
			c6.577,0.337,16.862,1.205,29.996,3.405c21.789,3.65,56.094,11.817,95.787,29.998l0.012-0.026
			c7.514,4.035,15.573,7.167,23.719,8.826l-76.071,177.083c-0.46,1.072-0.675,2.209-0.675,3.341h-0.012v10.088
			c0,26.929,21.908,48.838,48.837,48.838h77.107c26.929,0,48.838-21.909,48.838-48.838v-10.088H511.988z M157.852,363.914
			c0,17.595-14.313,31.909-31.907,31.909H48.837c-17.593,0-31.907-14.313-31.907-31.909v-1.623h140.923V363.914z M153.469,345.362
			H21.314l66.078-153.82L153.469,345.362z M256,41.639c4.313,0,7.821,3.509,7.821,7.821s-3.508,7.821-7.821,7.821
			s-7.823-3.509-7.823-7.821S251.688,41.639,256,41.639z M369.609,446.534c11.342,0,20.569,9.228,20.569,20.57v3.255H121.822v-3.255
			c0-11.343,9.229-20.57,20.571-20.57H369.609z M289.247,411.215c7.456,0,13.521,6.065,13.521,13.52v4.87h-93.535v-4.87
			c0-7.455,6.065-13.52,13.52-13.52h9.067h48.358H289.247z M268.354,352.396c1.852,0,3.36,1.508,3.36,3.361v38.529h-31.429v-38.529
			c0-1.853,1.508-3.361,3.362-3.361H268.354z M255.995,114.073c-3.583-0.08-35.65-0.367-83.083,13.4
			c36.083-18.611,79.701-20.593,83.086-20.718c3.387,0.124,47.003,2.106,83.086,20.717
			C291.616,113.693,259.539,113.991,255.995,114.073z M424.609,191.542l66.078,153.82H358.531L424.609,191.542z M495.072,363.914
			c-0.001,17.595-14.314,31.909-31.91,31.909h-77.107c-17.594,0-31.907-14.314-31.907-31.909v-1.623h140.924V363.914z"/>
	</g>
</g>
<g>
</g>
<g>
</g>
<g>
</g>
<g>
</g>
<g>
</g>
<g>
</g>
<g>
</g>
<g>
</g>
<g>
</g>
<g>
</g>
<g>
</g>
<g>
</g>
<g>
</g>
<g>
</g>
<g>
</g>
</svg>
