<?xml version="1.0" encoding="iso-8859-1"?>
<!-- Generator: Adobe Illustrator 19.0.0, SVG Export Plug-In . SVG Version: 6.00 Build 0)  -->
<svg version="1.1" id="Layer_1" xmlns="http://www.w3.org/2000/svg" xmlns:xlink="http://www.w3.org/1999/xlink" x="0px" y="0px"
	 viewBox="0 0 512.001 512.001" style="enable-background:new 0 0 512.001 512.001;" xml:space="preserve">
<g>
	<g>
		<path d="M410.838,137.078c0-36.133-10.298-70.201-28.997-95.931C362.558,14.614,336.662,0,308.924,0
			c-33.184,0-63.696,21.155-82.799,56.982c-7.513-2.324-15.236-3.501-23.048-3.501c-27.733,0-53.627,14.614-72.912,41.148
			c-18.703,25.731-29.002,59.799-29.002,95.931c0,35.496,9.987,69.131,28.124,94.709c13.595,19.174,30.677,32.349,49.44,38.469
			c-0.302,0.864-0.474,1.787-0.474,2.752c0,3.942,2.734,7.239,6.407,8.118V436.2c0,4.615,3.741,8.356,8.356,8.356
			c4.615,0,8.356-3.741,8.356-8.356v-96.254c2.443,4.266,5.063,8.382,7.9,12.286c16.127,22.189,36.878,36.033,59.461,39.975
			c-0.825,1.295-1.309,2.828-1.309,4.477c0,3.942,2.734,7.239,6.407,8.118v98.844c0,4.615,3.741,8.356,8.356,8.356
			s8.356-3.741,8.356-8.356v-98.844c3.672-0.879,6.407-4.176,6.407-8.118c0-1.649-0.485-3.182-1.309-4.477
			c22.583-3.942,43.335-17.786,59.462-39.975c18.7-25.729,28.999-59.798,28.999-95.933c0-8.207-0.558-16.298-1.599-24.219
			C400.797,206.466,410.838,172.89,410.838,137.078z M386.039,102.455l2.746-7.319c3.45,13.067,5.34,27.198,5.34,41.942
			c0,3.97-0.145,7.902-0.411,11.796c-2.063-0.314-4.218,0.146-6.011,1.385l-13.021,8.998l3.006-23.049
			c0.29-2.217-0.323-4.458-1.698-6.222l-14.627-18.742l18.42-3.517C382.645,107.181,385.015,105.183,386.039,102.455z
			 M308.924,16.713c29.678,0,55.856,21.553,71.116,54.156l-8.001,21.322l-27.247,5.203c-2.86,0.546-5.229,2.541-6.254,5.267
			c-1.025,2.725-0.557,5.787,1.233,8.082l20.891,26.77l-3.389,25.987c-0.719-1.051-1.427-2.111-2.172-3.135
			c-17.373-23.903-40.112-38.125-64.727-40.711c-11.408-25.496-28.433-45.032-48.796-56.109
			C257.744,34.069,282.468,16.713,308.924,16.713z M118.669,206.833c-0.514-5.354-0.793-10.783-0.793-16.274
			c0-16.888,2.479-32.97,6.942-47.57l6.027,15.672c1.042,2.71,3.415,4.684,6.267,5.217l18.929,3.53l-14.91,18.646
			c-1.424,1.782-2.059,4.068-1.756,6.329l3.112,23.244l-13.757-9.277c-2.823-1.903-6.519-1.904-9.341-0.001L118.669,206.833z
			 M188.039,309.031c-16.953-4.302-32.643-15.836-45.119-33.43c-10.172-14.347-17.46-31.643-21.466-50.491l2.603-1.754
			l24.511,16.527c1.409,0.952,3.039,1.428,4.672,1.428c1.526,0,3.055-0.418,4.405-1.256c2.795-1.735,4.314-4.948,3.876-8.21
			l-5.107-38.142l21.379-26.737c1.834-2.293,2.33-5.379,1.306-8.131c-1.023-2.752-3.415-4.764-6.301-5.302l-28.032-5.227
			l-10.793-28.071c15.489-30.29,40.693-50.041,69.104-50.041c8.161,0,16.224,1.641,23.969,4.883
			c17.89,7.461,33.837,23.504,44.888,44.817c-23.821,3.145-45.776,17.239-62.663,40.471c-18.7,25.729-29,59.798-29,95.933
			C180.272,274.689,182.953,292.536,188.039,309.031z M282.187,376.664c-46.981,0-85.203-53.995-85.203-120.365
			s38.222-120.365,85.203-120.365c46.981,0,85.203,53.995,85.203,120.365S329.168,376.664,282.187,376.664z M368.711,183.698
			c0.001-0.001,0.003-0.001,0.004-0.002l22.558-15.587c-2.705,14.383-7.317,27.876-13.634,39.959
			C375.28,199.573,372.293,191.419,368.711,183.698z"/>
	</g>
</g>
<g>
	<g>
		<path d="M350.715,240.114c-0.983-3.025-3.598-5.23-6.745-5.687l-37.511-5.451l-16.777-33.991
			c-1.408-2.852-4.313-4.658-7.494-4.658c-3.181,0-6.086,1.806-7.494,4.658l-16.775,33.991l-37.511,5.451
			c-3.148,0.457-5.763,2.662-6.745,5.687c-0.983,3.025-0.163,6.345,2.115,8.566l27.144,26.458l-6.408,37.36
			c-0.537,3.135,0.751,6.304,3.325,8.174c2.573,1.87,5.983,2.116,8.8,0.636l33.551-17.64l33.551,17.64
			c1.223,0.643,2.557,0.959,3.887,0.959c1.733,0,3.457-0.538,4.912-1.596c2.574-1.87,3.862-5.038,3.325-8.173l-6.408-37.361
			L348.6,248.68C350.878,246.459,351.698,243.139,350.715,240.114z M306.645,266.238c-1.97,1.92-2.869,4.686-2.403,7.396
			l4.288,25.002l-22.453-11.805c-1.218-0.64-2.554-0.959-3.888-0.959s-2.671,0.32-3.888,0.959l-22.453,11.805l4.289-25.001
			c0.465-2.711-0.433-5.477-2.403-7.397l-18.164-17.707l25.104-3.648c2.722-0.396,5.075-2.105,6.292-4.571l11.227-22.748
			l11.227,22.748c1.218,2.466,3.57,4.176,6.292,4.572l25.104,3.648L306.645,266.238z"/>
	</g>
</g>
<g>
</g>
<g>
</g>
<g>
</g>
<g>
</g>
<g>
</g>
<g>
</g>
<g>
</g>
<g>
</g>
<g>
</g>
<g>
</g>
<g>
</g>
<g>
</g>
<g>
</g>
<g>
</g>
<g>
</g>
</svg>
