<?xml version="1.0" encoding="iso-8859-1"?>
<!-- Generator: Adobe Illustrator 19.0.0, SVG Export Plug-In . SVG Version: 6.00 Build 0)  -->
<svg version="1.1" id="Layer_1" xmlns="http://www.w3.org/2000/svg" xmlns:xlink="http://www.w3.org/1999/xlink" x="0px" y="0px"
	 viewBox="0 0 512.001 512.001" style="enable-background:new 0 0 512.001 512.001;" xml:space="preserve">
<g>
	<g>
		<path d="M85.5,82.571c11.04-8.405,18.184-21.678,18.184-36.593C103.684,20.625,83.059,0,57.707,0
			C32.354,0,11.729,20.625,11.729,45.978c0,14.915,7.144,28.188,18.184,36.594c-11.04,8.405-18.184,21.677-18.184,36.593v24.083
			c0,5.182,4.2,9.383,9.383,9.383H94.3c5.183,0,9.383-4.201,9.383-9.383v-24.083C103.684,104.25,96.54,90.977,85.5,82.571z
			 M84.917,133.865h-54.42v-14.7c0-15.004,12.207-27.211,27.211-27.211s27.21,12.206,27.21,27.211V133.865z M57.707,73.189
			c-15.004,0-27.211-12.207-27.211-27.211c0-15.005,12.207-27.211,27.211-27.211s27.21,12.206,27.21,27.211
			S72.711,73.189,57.707,73.189z"/>
	</g>
</g>
<g>
	<g>
		<path d="M490.89,28.149H154.978c-5.183,0-9.383,4.201-9.383,9.383v90.076c0,5.182,4.2,9.383,9.383,9.383h335.911
			c5.183,0,9.383-4.201,9.383-9.383V37.533C500.273,32.35,496.072,28.149,490.89,28.149z M404.565,118.226H164.361V46.916h240.204
			V118.226z M481.506,118.226h-58.173V46.916h58.173V118.226z"/>
	</g>
</g>
<g>
	<g>
		<path d="M85.5,262.256c11.04-8.406,18.184-21.68,18.184-36.594c0-25.352-20.625-45.978-45.977-45.978
			c-25.353,0-45.978,20.625-45.978,45.978c0,14.915,7.144,28.188,18.184,36.594c-11.04,8.405-18.184,21.678-18.184,36.594v24.083
			c0,5.182,4.2,9.383,9.383,9.383H94.3c5.183,0,9.383-4.201,9.383-9.383V298.85C103.684,283.935,96.54,270.662,85.5,262.256z
			 M84.917,313.548h-54.42v-14.7c0-15.004,12.207-27.211,27.211-27.211s27.21,12.207,27.21,27.211V313.548z M57.707,252.872
			c-15.004,0-27.211-12.207-27.211-27.211c0-15.004,12.207-27.211,27.211-27.211s27.21,12.206,27.21,27.211
			C84.917,240.666,72.711,252.872,57.707,252.872z"/>
	</g>
</g>
<g>
	<g>
		<path d="M490.89,207.834H154.978c-5.183,0-9.383,4.201-9.383,9.383v90.076c0,5.182,4.2,9.383,9.383,9.383h335.911
			c5.183,0,9.383-4.201,9.383-9.383v-90.076C500.273,212.035,496.072,207.834,490.89,207.834z M270.466,297.91H164.361v-71.309h0
			h106.105V297.91z M481.506,297.91H289.233v-71.309h192.274V297.91z"/>
	</g>
</g>
<g>
	<g>
		<path d="M85.5,441.94c11.04-8.406,18.184-21.68,18.184-36.594c0-25.352-20.625-45.978-45.977-45.978
			c-25.353,0-45.978,20.625-45.978,45.978c0,14.915,7.144,28.188,18.184,36.594c-11.04,8.405-18.184,21.678-18.184,36.594v24.083
			c0,5.182,4.2,9.383,9.383,9.383H94.3c5.183,0,9.383-4.201,9.383-9.383v-24.083C103.684,463.62,96.54,450.347,85.5,441.94z
			 M84.917,493.233h-54.42v-14.7c0-15.004,12.207-27.211,27.211-27.211s27.21,12.207,27.21,27.211V493.233z M57.707,432.557
			c-15.004,0-27.211-12.207-27.211-27.211c0-15.004,12.207-27.211,27.211-27.211s27.21,12.206,27.21,27.211
			C84.917,420.351,72.711,432.557,57.707,432.557z"/>
	</g>
</g>
<g>
	<g>
		<path d="M490.89,387.518H154.978c-5.183,0-9.383,4.201-9.383,9.383v90.078c0,5.182,4.2,9.383,9.383,9.383h335.911
			c5.183,0,9.383-4.201,9.383-9.383v-90.078C500.273,391.719,496.072,387.518,490.89,387.518z M332.628,477.595H164.361v-71.311
			h168.267V477.595z M351.395,477.595v-71.311h130.11v71.311H351.395z"/>
	</g>
</g>
<g>
</g>
<g>
</g>
<g>
</g>
<g>
</g>
<g>
</g>
<g>
</g>
<g>
</g>
<g>
</g>
<g>
</g>
<g>
</g>
<g>
</g>
<g>
</g>
<g>
</g>
<g>
</g>
<g>
</g>
</svg>
