<?xml version="1.0" encoding="iso-8859-1"?>
<!-- Generator: Adobe Illustrator 19.0.0, SVG Export Plug-In . SVG Version: 6.00 Build 0)  -->
<svg version="1.1" id="Layer_1" xmlns="http://www.w3.org/2000/svg" xmlns:xlink="http://www.w3.org/1999/xlink" x="0px" y="0px"
	 viewBox="0 0 512 512" style="enable-background:new 0 0 512 512;" xml:space="preserve">
<g>
	<g>
		<path d="M174.726,272.024c-5.364,0-9.729-4.364-9.729-9.728c0-5.364,4.364-9.729,9.729-9.729s9.73,4.364,9.73,9.729
			c0,5.144,4.169,9.315,9.315,9.315s9.315-4.171,9.315-9.315c0-15.637-12.722-28.358-28.36-28.358
			c-15.637,0-28.358,12.722-28.358,28.358s12.722,28.358,28.358,28.358c5.364,0,9.73,4.364,9.73,9.729
			c0,5.364-4.366,9.729-9.73,9.729s-9.729-4.364-9.729-9.729c0-5.144-4.169-9.315-9.315-9.315s-9.315,4.171-9.315,9.315
			c0,15.637,12.722,28.358,28.358,28.358c15.638,0,28.36-12.722,28.36-28.358S190.363,272.024,174.726,272.024z"/>
	</g>
</g>
<g>
	<g>
		<path d="M281.864,233.936c-5.146,0-9.315,4.171-9.315,9.315v47.634l-38.812-53.129c-2.376-3.255-6.574-4.612-10.412-3.361
			c-3.832,1.251-6.425,4.824-6.425,8.855v76.175c0,5.146,4.169,9.316,9.315,9.316s9.315-4.171,9.315-9.315v-47.634l38.812,53.129
			c1.786,2.447,4.605,3.82,7.523,3.82c0.963,0,1.938-0.15,2.889-0.461c3.832-1.251,6.425-4.824,6.425-8.855v-76.175
			C291.179,238.107,287.009,233.936,281.864,233.936z"/>
	</g>
</g>
<g>
	<g>
		<path d="M327.755,233.936h-9.237c-5.146,0-9.315,4.171-9.315,9.315v76.175c0,5.144,4.169,9.315,9.315,9.315h9.237
			c20.068,0,36.395-16.327,36.395-36.394v-22.016C364.151,250.263,347.825,233.936,327.755,233.936z M345.521,292.348
			c0,9.769-7.926,17.722-17.686,17.764v-57.545c9.76,0.043,17.686,7.996,17.686,17.764V292.348z"/>
	</g>
</g>
<g>
	<g>
		<path d="M296.199,373.274h-6.923l6.266-16.561c1.821-4.811-0.604-10.188-5.415-12.009c-4.809-1.82-10.188,0.602-12.009,5.415
			l-8.761,23.154h-61.975c-5.146,0-9.315,4.171-9.315,9.315v88.817c0,5.144,4.169,9.315,9.315,9.315h88.817
			c5.146,0,9.315-4.171,9.315-9.315v-88.817C305.514,377.444,301.344,373.274,296.199,373.274z M216.697,462.091v-70.187h45.612
			l-11.436,30.225l-4.148-8.295c-2.3-4.602-7.893-6.467-12.498-4.166c-4.6,2.3-6.466,7.895-4.166,12.497l13.662,27.324
			c1.582,3.167,4.816,5.149,8.329,5.149c0.159,0,0.318-0.004,0.477-0.012c3.696-0.189,6.928-2.546,8.238-6.006l21.46-56.717h4.656
			v70.189H216.697z"/>
	</g>
</g>
<g>
	<g>
		<path d="M452.68,0H59.319c-5.146,0-9.315,4.171-9.315,9.315v139.103c0,5.144,4.169,9.315,9.315,9.315h6.627v344.952
			c0,5.144,4.169,9.315,9.315,9.315h361.477c5.146,0,9.315-4.171,9.315-9.315V157.733h6.627c5.146,0,9.315-4.171,9.315-9.315V9.315
			C461.994,4.171,457.825,0,452.68,0z M427.424,192.285l-22.347-12.286c-2.794-1.536-6.181-1.536-8.976,0l-31.651,17.404
			l-31.653-17.404c-2.794-1.536-6.181-1.536-8.976,0l-31.656,17.405l-31.658-17.405c-2.794-1.536-6.181-1.536-8.976,0
			l-31.661,17.405l-31.661-17.405c-2.794-1.536-6.181-1.536-8.976,0l-31.661,17.405l-31.667-17.405
			c-2.792-1.535-6.179-1.535-8.973,0l-22.356,12.288v-34.555h342.847V192.285z M427.421,493.374H84.576v-0.004V213.545
			l26.842-14.754l31.667,17.406c2.794,1.535,6.18,1.536,8.975,0l31.661-17.405l31.661,17.405c1.397,0.769,2.942,1.153,4.487,1.153
			s3.09-0.384,4.487-1.153l31.661-17.405l31.658,17.405c2.794,1.536,6.181,1.536,8.976,0l31.656-17.404l31.653,17.404
			c2.794,1.536,6.181,1.536,8.976,0l31.651-17.404l26.834,14.754V493.374z M443.365,139.103h-6.627H75.261h-6.627V18.63h374.73
			V139.103z"/>
	</g>
</g>
<g>
	<g>
		<path d="M191.416,47.196c-17.464,0-31.671,14.207-31.671,31.671c0,17.464,14.208,31.671,31.671,31.671
			c17.464,0,31.671-14.207,31.671-31.671C223.087,61.403,208.88,47.196,191.416,47.196z M191.416,91.907
			c-7.191,0-13.041-5.85-13.041-13.041c0-7.191,5.85-13.041,13.041-13.041s13.041,5.85,13.041,13.041
			C204.457,86.057,198.607,91.907,191.416,91.907z"/>
	</g>
</g>
<g>
	<g>
		<path d="M320.583,47.196c-17.464,0-31.671,14.207-31.671,31.671c0,17.464,14.208,31.671,31.671,31.671
			c17.464,0,31.671-14.207,31.671-31.671C352.254,61.403,338.046,47.196,320.583,47.196z M320.583,91.907
			c-7.191,0-13.041-5.85-13.041-13.041c0-7.191,5.85-13.041,13.041-13.041c7.191,0,13.041,5.85,13.041,13.041
			C333.624,86.057,327.774,91.907,320.583,91.907z"/>
	</g>
</g>
<g>
</g>
<g>
</g>
<g>
</g>
<g>
</g>
<g>
</g>
<g>
</g>
<g>
</g>
<g>
</g>
<g>
</g>
<g>
</g>
<g>
</g>
<g>
</g>
<g>
</g>
<g>
</g>
<g>
</g>
</svg>
