<?xml version="1.0" encoding="iso-8859-1"?>
<!-- Generator: Adobe Illustrator 19.0.0, SVG Export Plug-In . SVG Version: 6.00 Build 0)  -->
<svg version="1.1" id="Layer_1" xmlns="http://www.w3.org/2000/svg" xmlns:xlink="http://www.w3.org/1999/xlink" x="0px" y="0px"
	 viewBox="0 0 512 512" style="enable-background:new 0 0 512 512;" xml:space="preserve">
<g>
	<g>
		<path d="M444.894,108.744L374.155,3.897C372.511,1.461,369.764,0,366.825,0H74.436c-4.883,0-8.842,3.959-8.842,8.842v494.315
			c0,4.883,3.959,8.842,8.842,8.842h363.129c4.883,0,8.842-3.959,8.842-8.842V113.69
			C446.407,111.927,445.88,110.206,444.894,108.744z M367.186,25.188l45.152,66.922l-66.929-31.351L367.186,25.188z
			 M428.721,494.315H83.278V17.685h267.765l-25.88,42.271c-1.313,2.146-1.651,4.75-0.928,7.16c0.723,2.41,2.439,4.398,4.718,5.465
			l99.767,46.732V494.315z"/>
	</g>
</g>
<g>
	<g>
		<path d="M197.303,137.671c10.405-7.92,17.137-20.428,17.137-34.484c0-23.89-19.436-43.327-43.327-43.327
			s-43.327,19.436-43.327,43.327c0,14.055,6.732,26.563,17.135,34.484c-10.403,7.92-17.135,20.428-17.135,34.484
			c0,4.883,3.959,8.842,8.842,8.842h68.967c4.883,0,8.842-3.959,8.842-8.842C214.438,158.1,207.706,145.592,197.303,137.671z
			 M147.044,163.312c3.61-9.795,13.037-16.799,24.07-16.799s20.459,7.003,24.069,16.799H147.044z M171.113,128.828
			c-14.14,0-25.642-11.502-25.642-25.642c0-14.138,11.502-25.642,25.642-25.642s25.642,11.502,25.642,25.642
			S185.252,128.828,171.113,128.828z"/>
	</g>
</g>
<g>
	<g>
		<path d="M197.303,268.902c10.405-7.922,17.137-20.43,17.137-34.484c0-23.89-19.436-43.327-43.327-43.327
			s-43.327,19.436-43.327,43.327c0,14.055,6.732,26.563,17.135,34.484c-10.403,7.92-17.135,20.428-17.135,34.484
			c0,4.883,3.959,8.842,8.842,8.842h68.967c4.883,0,8.842-3.959,8.842-8.842C214.438,289.331,207.706,276.823,197.303,268.902z
			 M147.044,294.542c3.61-9.795,13.037-16.799,24.07-16.799s20.459,7.003,24.069,16.799H147.044z M171.113,260.059
			c-14.14,0-25.642-11.503-25.642-25.642c0-14.138,11.502-25.642,25.642-25.642s25.642,11.502,25.642,25.642
			C196.755,248.557,185.252,260.059,171.113,260.059z"/>
	</g>
</g>
<g>
	<g>
		<path d="M197.303,400.13c10.405-7.92,17.137-20.428,17.137-34.484c0-23.89-19.436-43.327-43.327-43.327
			s-43.327,19.436-43.327,43.327c0,14.055,6.732,26.563,17.135,34.484c-10.403,7.92-17.135,20.428-17.135,34.484
			c0,4.883,3.959,8.842,8.842,8.842h68.967c4.883,0,8.842-3.959,8.842-8.842C214.438,420.56,207.706,408.052,197.303,400.13z
			 M147.044,425.772c3.61-9.795,13.037-16.799,24.07-16.799s20.459,7.003,24.069,16.799H147.044z M171.113,391.288
			c-14.14,0-25.642-11.502-25.642-25.642c0-14.138,11.502-25.642,25.642-25.642s25.642,11.502,25.642,25.642
			C196.755,379.786,185.252,391.288,171.113,391.288z"/>
	</g>
</g>
<g>
	<g>
		<path d="M343.245,145.334h-82.529c-4.883,0-8.842,3.959-8.842,8.842c0,4.883,3.959,8.842,8.842,8.842h82.529
			c4.883,0,8.842-3.959,8.842-8.842C352.088,149.293,348.129,145.334,343.245,145.334z"/>
	</g>
</g>
<g>
	<g>
		<path d="M366.825,104.848H260.716c-4.883,0-8.842,3.959-8.842,8.842c0,4.883,3.959,8.842,8.842,8.842h106.109
			c4.883,0,8.842-3.959,8.842-8.842C375.667,108.807,371.708,104.848,366.825,104.848z"/>
	</g>
</g>
<g>
	<g>
		<path d="M343.245,263.06h-82.529c-4.883,0-8.842,3.959-8.842,8.842s3.959,8.842,8.842,8.842h82.529
			c4.883,0,8.842-3.959,8.842-8.842S348.129,263.06,343.245,263.06z"/>
	</g>
</g>
<g>
	<g>
		<path d="M366.825,222.573H260.716c-4.883,0-8.842,3.959-8.842,8.842s3.959,8.842,8.842,8.842h106.109
			c4.883,0,8.842-3.959,8.842-8.842S371.708,222.573,366.825,222.573z"/>
	</g>
</g>
<g>
	<g>
		<path d="M343.245,394.29h-82.529c-4.883,0-8.842,3.959-8.842,8.842c0,4.883,3.959,8.842,8.842,8.842h82.529
			c4.883,0,8.842-3.959,8.842-8.842C352.088,398.249,348.129,394.29,343.245,394.29z"/>
	</g>
</g>
<g>
	<g>
		<path d="M366.825,353.803H260.716c-4.883,0-8.842,3.959-8.842,8.842c0,4.883,3.959,8.842,8.842,8.842h106.109
			c4.883,0,8.842-3.959,8.842-8.842C375.667,357.762,371.708,353.803,366.825,353.803z"/>
	</g>
</g>
<g>
</g>
<g>
</g>
<g>
</g>
<g>
</g>
<g>
</g>
<g>
</g>
<g>
</g>
<g>
</g>
<g>
</g>
<g>
</g>
<g>
</g>
<g>
</g>
<g>
</g>
<g>
</g>
<g>
</g>
</svg>
