<?xml version="1.0" encoding="iso-8859-1"?>
<!-- Generator: Adobe Illustrator 19.0.0, SVG Export Plug-In . SVG Version: 6.00 Build 0)  -->
<svg version="1.1" id="Layer_1" xmlns="http://www.w3.org/2000/svg" xmlns:xlink="http://www.w3.org/1999/xlink" x="0px" y="0px"
	 viewBox="0 0 512 512" style="enable-background:new 0 0 512 512;" xml:space="preserve">
<g>
	<g>
		<path d="M502.921,322.072H342.74v-75.433h6.851c5.015,0,9.079-4.065,9.079-9.079s-4.064-9.079-9.079-9.079h-15.93h-2.951v-29.634
			h5.525c5.015,0,9.079-4.065,9.079-9.079s-4.064-9.079-9.079-9.079h-3.717c-4.158-35.251-32.187-63.281-67.438-67.439V11.587
			c0-5.014-4.064-9.079-9.079-9.079c-5.015,0-9.079,4.065-9.079,9.079v101.665c-35.252,4.158-63.281,32.187-67.439,67.439h-3.717
			c-5.015,0-9.079,4.065-9.079,9.079s4.064,9.079,9.079,9.079h5.525v29.634h-2.951h-15.93c-5.015,0-9.079,4.065-9.079,9.079
			s4.064,9.079,9.079,9.079h6.851v75.433H9.079c-5.015,0-9.079,4.065-9.079,9.079v169.26c0,5.014,4.064,9.079,9.079,9.079h493.843
			c5.015,0,9.079-4.065,9.079-9.079V331.151C512,326.137,507.935,322.072,502.921,322.072z M357.261,340.23h24.326v83.127h-24.326
			V340.23z M339.104,340.23v83.127H311.17V340.23H339.104z M255.999,130.856c29.398,0,53.832,21.645,58.211,49.833H197.788
			C202.168,152.501,226.603,130.856,255.999,130.856z M312.552,198.848v29.634H199.448v-29.634H312.552z M187.418,246.639h137.164
			v75.433h-6.681l-57.489-32.027c-2.748-1.531-6.09-1.53-8.838,0l-57.474,32.027h-6.683V246.639z M231.401,322.072l24.592-13.704
			l24.598,13.704H231.401z M246.921,340.23v83.127h-27.935V340.23H246.921z M265.078,340.23h27.933v83.127h-27.933V340.23z
			 M172.896,340.23h27.933v83.127h-27.933V340.23z M130.413,340.23h24.325v83.127h-24.325V340.23z M112.256,491.333H18.157V340.23
			h94.099V491.333z M182.532,491.333h-52.119v-49.819h52.119V491.333z M311.309,491.333H200.69v-15.965h110.619V491.333z
			 M311.309,457.21H200.69v-15.696h110.62V457.21z M381.588,491.333h-52.121v-49.819h52.121V491.333z M493.843,491.333h-94.097
			V340.23h94.097V491.333z"/>
	</g>
</g>
<g>
	<g>
		<path d="M430.579,364.942c-5.015,0-9.079,4.065-9.079,9.079v27.88c0,5.014,4.064,9.079,9.079,9.079s9.079-4.065,9.079-9.079
			v-27.88C439.657,369.007,435.594,364.942,430.579,364.942z"/>
	</g>
</g>
<g>
	<g>
		<path d="M462.441,364.942c-5.015,0-9.079,4.065-9.079,9.079v27.88c0,5.014,4.065,9.079,9.079,9.079
			c5.015,0,9.079-4.065,9.079-9.079v-27.88C471.52,369.007,467.456,364.942,462.441,364.942z"/>
	</g>
</g>
<g>
	<g>
		<path d="M430.579,424.684c-5.015,0-9.079,4.065-9.079,9.079v27.88c0,5.014,4.064,9.079,9.079,9.079s9.079-4.065,9.079-9.079
			v-27.88C439.657,428.749,435.594,424.684,430.579,424.684z"/>
	</g>
</g>
<g>
	<g>
		<path d="M462.441,424.684c-5.015,0-9.079,4.065-9.079,9.079v27.88c0,5.014,4.065,9.079,9.079,9.079
			c5.015,0,9.079-4.065,9.079-9.079v-27.88C471.52,428.749,467.456,424.684,462.441,424.684z"/>
	</g>
</g>
<g>
	<g>
		<path d="M49.557,364.943c-5.015,0-9.079,4.065-9.079,9.079v27.88c0,5.014,4.064,9.079,9.079,9.079s9.079-4.065,9.079-9.079v-27.88
			C58.636,369.008,54.573,364.943,49.557,364.943z"/>
	</g>
</g>
<g>
	<g>
		<path d="M81.421,364.943c-5.015,0-9.079,4.065-9.079,9.079v27.88c0,5.014,4.064,9.079,9.079,9.079
			c5.015,0,9.079-4.065,9.079-9.079v-27.88C90.5,369.008,86.435,364.943,81.421,364.943z"/>
	</g>
</g>
<g>
	<g>
		<path d="M49.557,424.684c-5.015,0-9.079,4.065-9.079,9.079v27.88c0,5.014,4.064,9.079,9.079,9.079s9.079-4.065,9.079-9.079v-27.88
			C58.636,428.749,54.573,424.684,49.557,424.684z"/>
	</g>
</g>
<g>
	<g>
		<path d="M81.421,424.684c-5.015,0-9.079,4.065-9.079,9.079v27.88c0,5.014,4.064,9.079,9.079,9.079
			c5.015,0,9.079-4.065,9.079-9.079v-27.88C90.5,428.749,86.435,424.684,81.421,424.684z"/>
	</g>
</g>
<g>
	<g>
		<path d="M213.517,258.734c-5.015,0-9.079,4.065-9.079,9.079v17.259c0,5.014,4.064,9.079,9.079,9.079s9.079-4.065,9.079-9.079
			v-17.259C222.596,262.799,218.532,258.734,213.517,258.734z"/>
	</g>
</g>
<g>
	<g>
		<path d="M298.483,258.734c-5.015,0-9.079,4.065-9.079,9.079v17.259c0,5.014,4.065,9.079,9.079,9.079
			c5.015,0,9.079-4.065,9.079-9.079v-17.259C307.561,262.799,303.498,258.734,298.483,258.734z"/>
	</g>
</g>
<g>
</g>
<g>
</g>
<g>
</g>
<g>
</g>
<g>
</g>
<g>
</g>
<g>
</g>
<g>
</g>
<g>
</g>
<g>
</g>
<g>
</g>
<g>
</g>
<g>
</g>
<g>
</g>
<g>
</g>
</svg>
