<?xml version="1.0" encoding="iso-8859-1"?>
<!-- Generator: Adobe Illustrator 19.0.0, SVG Export Plug-In . SVG Version: 6.00 Build 0)  -->
<svg version="1.1" id="Layer_1" xmlns="http://www.w3.org/2000/svg" xmlns:xlink="http://www.w3.org/1999/xlink" x="0px" y="0px"
	 viewBox="0 0 511.999 511.999" style="enable-background:new 0 0 511.999 511.999;" xml:space="preserve">
<g>
	<g>
		<path d="M502.586,141.815l-13.664-13.664l19.807-19.807c1.632-1.632,2.548-3.846,2.548-6.154s-0.917-4.522-2.548-6.154
			l-55.632-55.632c-3.4-3.399-8.91-3.399-12.309,0L420.983,60.21l-5.898-5.898c-3.4-3.399-8.91-3.399-12.309,0L229.668,227.417
			C201,256.085,190.156,297.299,200.704,336.12l-12.112,12.111c-3.4,3.399-3.4,8.91-0.001,12.309c1.7,1.7,3.927,2.55,6.155,2.55
			c2.227,0,4.455-0.849,6.154-2.55l12.111-12.111c9.771,2.655,19.692,3.968,29.529,3.968c29.243,0,57.723-11.481,79.177-32.934
			l46.894-46.894c-0.912,7.462-0.174,15.186,2.439,22.591c1.261,3.576,4.62,5.809,8.207,5.809c0.961,0,1.939-0.16,2.897-0.498
			c4.533-1.6,6.911-6.572,5.31-11.105c-5.092-14.425,0.671-30.711,13.703-38.724l95.528-58.742
			c8.429-5.183,13.925-13.79,15.079-23.616C512.932,158.46,509.582,148.812,502.586,141.815z M446.943,58.868l43.323,43.323
			l-13.653,13.651L433.29,72.519L446.943,58.868z M309.406,307.157c-24.235,24.234-59.086,33.407-91.899,24.47
			c-8.937-32.816,0.236-67.666,24.471-91.9l9.328-9.328l67.429,67.429L309.406,307.157z M331.045,285.518l-67.429-67.429
			L408.929,72.775l67.429,67.429L331.045,285.518z M494.488,166.253c-0.529,4.503-3.047,8.446-6.91,10.82l-60.948,37.477
			l62.037-62.036l1.61,1.61C493.482,157.33,495.017,161.75,494.488,166.253z"/>
	</g>
</g>
<g>
	<g>
		<path d="M230.304,363.79c-4.808,0-8.704,3.897-8.704,8.704v84.245H17.407V252.544h174.569c4.808,0,8.704-3.897,8.704-8.704
			c0-4.807-3.896-8.704-8.704-8.704H8.704c-4.808,0-8.704,3.897-8.704,8.704v221.6c0,4.807,3.896,8.704,8.704,8.704h221.6
			c4.808,0,8.704-3.897,8.704-8.704v-92.947C239.008,367.687,235.112,363.79,230.304,363.79z"/>
	</g>
</g>
<g>
	<g>
		<path d="M198.68,373.569c-4.808,0-8.704,3.897-8.704,8.704v42.842H49.031V284.168h128.727c4.807,0,8.704-3.897,8.704-8.704
			c0-4.807-3.896-8.704-8.704-8.704H40.327c-4.808,0-8.704,3.897-8.704,8.704v158.355c0,4.807,3.896,8.704,8.704,8.704H198.68
			c4.808,0,8.704-3.897,8.704-8.704v-51.545C207.384,377.466,203.488,373.569,198.68,373.569z"/>
	</g>
</g>
<g>
	<g>
		<path d="M173.443,297.74c-4.117-2.48-9.465-1.157-11.95,2.96l-52.176,86.518l-25.38-46.052c-2.32-4.209-7.61-5.742-11.823-3.422
			c-4.21,2.32-5.741,7.614-3.421,11.823l32.663,59.267c1.502,2.725,4.343,4.44,7.453,4.502c0.058,0.001,0.115,0.001,0.171,0.001
			c3.045,0,5.876-1.593,7.453-4.209l59.969-99.44C178.885,305.572,177.56,300.222,173.443,297.74z"/>
	</g>
</g>
<g>
</g>
<g>
</g>
<g>
</g>
<g>
</g>
<g>
</g>
<g>
</g>
<g>
</g>
<g>
</g>
<g>
</g>
<g>
</g>
<g>
</g>
<g>
</g>
<g>
</g>
<g>
</g>
<g>
</g>
</svg>
