<?xml version="1.0" encoding="iso-8859-1"?>
<!-- Generator: Adobe Illustrator 19.0.0, SVG Export Plug-In . SVG Version: 6.00 Build 0)  -->
<svg version="1.1" id="Layer_1" xmlns="http://www.w3.org/2000/svg" xmlns:xlink="http://www.w3.org/1999/xlink" x="0px" y="0px"
	 viewBox="0 0 512 512" style="enable-background:new 0 0 512 512;" xml:space="preserve">
<g>
	<g>
		<path d="M195.117,177.289c-1.8-1.615-4.206-2.386-6.608-2.128l-21.415,2.324v-31.721c0-2.259-0.897-4.426-2.495-6.023
			l-13.272-13.272c4.442-9.406,2.808-20.992-4.96-28.759c-9.882-9.883-25.963-9.883-35.846,0
			c-4.787,4.787-7.424,11.153-7.424,17.923s2.637,13.136,7.424,17.923c4.942,4.942,11.431,7.412,17.923,7.412
			c3.712,0,7.414-0.837,10.836-2.453l10.777,10.777v30.042L7.599,194.794C3.275,195.263,0,198.913,0,203.262v17.296
			c0,4.704,3.814,8.518,8.518,8.518h9.444v210.902c0,4.704,3.814,8.518,8.518,8.518h126.532c4.425,0,8.114-3.388,8.487-7.798
			l17.959-211.622h9.971c4.704,0,8.518-3.814,8.518-8.518v-36.931C197.947,181.209,196.918,178.904,195.117,177.289z
			 M134.321,121.51c-3.24,3.239-8.512,3.239-11.753,0c-1.57-1.57-2.435-3.657-2.435-5.877c0-2.22,0.864-4.307,2.435-5.876
			c1.621-1.62,3.748-2.43,5.876-2.43s4.257,0.81,5.876,2.43C137.561,112.996,137.561,118.269,134.321,121.51z M145.185,431.46
			H34.996V229.076H162.36L145.185,431.46z M180.911,212.04H17.036v-1.135l163.875-17.786V212.04z"/>
	</g>
</g>
<g>
	<g>
		<path d="M504.402,194.794l-142.459-15.461v-30.042l10.768-10.768c3.35,1.59,7.027,2.455,10.845,2.455
			c6.77,0,13.135-2.636,17.923-7.424c9.881-9.883,9.881-25.963,0-35.846c0,0,0,0-0.001,0c-4.787-4.787-11.152-7.423-17.922-7.423
			c-6.771,0-13.136,2.636-17.922,7.423c-4.788,4.787-7.424,11.153-7.424,17.923c0,3.818,0.867,7.495,2.455,10.845l-13.263,13.263
			c-1.598,1.597-2.495,3.764-2.495,6.023v31.721l-21.415-2.324c-2.413-0.262-4.808,0.513-6.608,2.128
			c-1.801,1.615-2.829,3.921-2.829,6.34v36.931c0,4.704,3.813,8.518,8.518,8.518h9.969l17.96,211.622
			c0.374,4.409,4.061,7.798,8.487,7.798h126.532c4.705,0,8.518-3.814,8.518-8.518V229.076h9.442c4.705,0,8.518-3.814,8.518-8.518
			v-17.296C512,198.913,508.725,195.263,504.402,194.794z M377.679,109.755c1.57-1.57,3.656-2.434,5.876-2.434
			c2.219,0,4.307,0.864,5.877,2.435c3.24,3.24,3.239,8.513,0,11.753c-1.571,1.57-3.658,2.435-5.877,2.435
			c-2.22,0-4.307-0.864-5.876-2.434c-1.571-1.57-2.435-3.657-2.435-5.877C375.244,113.412,376.11,111.326,377.679,109.755z
			 M366.815,431.46l-17.177-202.384h127.364V431.46H366.815z M494.964,212.04H331.089v-18.92l163.875,17.786V212.04z"/>
	</g>
</g>
<g>
	<g>
		<path d="M291.651,102.078c-5.939,0-10.769-4.831-10.769-10.769c0-5.938,4.831-10.769,10.769-10.769
			c5.938,0,10.768,4.83,10.768,10.769c0,4.704,3.813,8.518,8.518,8.518c4.705,0,8.518-3.814,8.518-8.518
			c0-15.332-12.473-27.805-27.804-27.805c-15.332,0-27.805,12.473-27.805,27.805c0,15.332,12.473,27.805,27.805,27.805
			c5.731,0,10.392,4.662,10.392,10.392c0,5.73-4.661,10.392-10.392,10.392c-5.731,0-10.393-4.662-10.393-10.392
			c0-4.704-3.813-8.518-8.518-8.518s-8.518,3.814-8.518,8.518c0,15.123,12.305,27.428,27.429,27.428
			c15.123,0,27.428-12.305,27.428-27.428C319.079,114.383,306.776,102.078,291.651,102.078z"/>
	</g>
</g>
<g>
	<g>
		<path d="M251.409,64.016h-7.155c-0.011,0-0.023,0-0.035,0h-12.202c-4.704,0-8.518,3.814-8.518,8.518
			c0,4.704,3.814,8.518,8.518,8.518h0.212l-11.672,34.858l-11.671-34.858h0.212c4.704,0,8.518-3.814,8.518-8.518
			c0-4.704-3.814-8.518-8.518-8.518h-12.214c-0.006,0-0.011,0-0.017,0h-7.162c-4.704,0-8.518,3.814-8.518,8.518
			c0,4.704,3.814,8.518,8.518,8.518h1.215l21.56,64.391c1.162,3.473,4.415,5.814,8.077,5.814c3.663,0,6.914-2.341,8.077-5.814
			l21.56-64.391h1.215c4.705,0,8.518-3.814,8.518-8.518C259.928,67.829,256.113,64.016,251.409,64.016z"/>
	</g>
</g>
<g>
</g>
<g>
</g>
<g>
</g>
<g>
</g>
<g>
</g>
<g>
</g>
<g>
</g>
<g>
</g>
<g>
</g>
<g>
</g>
<g>
</g>
<g>
</g>
<g>
</g>
<g>
</g>
<g>
</g>
</svg>
