<?xml version="1.0" encoding="iso-8859-1"?>
<!-- Generator: Adobe Illustrator 19.0.0, SVG Export Plug-In . SVG Version: 6.00 Build 0)  -->
<svg version="1.1" id="Layer_1" xmlns="http://www.w3.org/2000/svg" xmlns:xlink="http://www.w3.org/1999/xlink" x="0px" y="0px"
	 viewBox="0 0 511.996 511.996" style="enable-background:new 0 0 511.996 511.996;" xml:space="preserve">
<g>
	<g>
		<path d="M388.717,383.058c-2.999-3-6.587-5.194-10.499-6.493c5.131-10.082,3.492-22.75-4.929-31.171
			c-4.017-4.017-9.084-6.596-14.581-7.498c1.429-8.308-1.05-17.162-7.451-23.562c-2.647-2.647-5.753-4.667-9.135-5.999l1.805-1.805
			c5.069-5.069,7.862-11.81,7.862-18.979s-2.792-13.91-7.862-18.979c-9.407-9.408-24.115-10.354-34.595-2.848l86.101-255.069
			c1.426-4.224-0.843-8.802-5.065-10.228c-4.225-1.425-8.802,0.841-10.228,5.066l-5.732,16.981l-106.361,8.854
			c-2.944,0.245-5.519,2.079-6.712,4.781c-0.099,0.225-11.335,33.476-11.335,33.476l-58.332,3.822
			c-3.263,0.214-6.073,2.375-7.119,5.472l-47.032,139.331c-0.861,2.551-0.394,5.364,1.248,7.499
			c1.533,1.995,3.902,3.152,6.397,3.152c0.175,0,0.352-0.005,0.528-0.017l103.677-6.794c3.263-0.214,6.073-2.375,7.119-5.472
			l11.284-33.428l53.969-4.65l-31.851,94.357c-0.765-1.006-1.6-1.977-2.519-2.895c-5.347-5.347-12.455-8.291-20.017-8.291
			s-14.67,2.944-20.017,8.291l-46.347,46.347c-14.535,14.535-22.547,33.869-22.555,54.439c-0.005,13.246-4.929,25.462-13.863,34.396
			l-46.779,46.779c-3.152,3.152-3.152,8.261,0,11.413c1.575,1.576,3.641,2.364,5.706,2.364s4.131-0.788,5.706-2.364l46.779-46.779
			c11.981-11.981,18.583-28.248,18.59-45.802c0.008-16.261,6.339-31.543,17.828-43.033l46.347-46.348
			c2.298-2.297,5.353-3.564,8.603-3.564s6.305,1.265,8.603,3.564c4.742,4.743,4.743,12.46,0.002,17.204l-36.799,36.799
			c-3.152,3.152-3.152,8.261,0,11.413c1.575,1.576,3.641,2.364,5.706,2.364s4.131-0.788,5.706-2.364l6.868-6.868l59.938-59.938
			c4.172-4.172,10.962-4.172,15.133,0c2.021,2.021,3.135,4.708,3.135,7.566c0,2.858-1.113,5.545-3.135,7.567l-38.367,38.367
			c-3.152,3.152-3.152,8.261,0,11.413s8.262,3.152,11.413,0l19.151-19.151c4.171-4.172,10.961-4.173,15.134,0
			c4.172,4.172,4.172,10.961,0,15.133l-14.829,14.829c-3.152,3.152-3.152,8.261,0,11.413c1.575,1.576,3.641,2.364,5.706,2.364
			c2.065,0,4.131-0.788,5.706-2.364l10.32-10.319c2.021-2.018,4.705-3.128,7.56-3.128c2.858,0,5.545,1.113,7.567,3.135
			c4.172,4.172,4.172,10.961,0,15.133l-15.871,15.871c-3.152,3.152-3.152,8.262,0,11.414c1.575,1.576,3.641,2.364,5.706,2.364
			s4.131-0.788,5.706-2.364l4.755-4.755c2.021-2.02,4.707-3.131,7.564-3.131c2.858,0,5.545,1.113,7.567,3.133
			c2.021,2.021,3.135,4.709,3.135,7.567c0,2.858-1.113,5.545-3.135,7.567l-37.081,37.081c-13.184,13.185-29.638,22.83-47.584,27.893
			l-0.353,0.098c-15.334,4.15-29.388,12.292-40.64,23.545c-3.152,3.152-3.152,8.261,0,11.413c1.575,1.576,3.641,2.364,5.706,2.364
			c2.065,0,4.131-0.788,5.706-2.364c9.263-9.262,20.827-15.963,33.442-19.378l0.523-0.145c20.597-5.812,39.482-16.882,54.613-32.015
			l37.081-37.081c5.069-5.069,7.862-11.81,7.862-18.979C396.578,394.869,393.786,388.129,388.717,383.058z M271.532,56.262
			l8.724,11.338l-12.834,0.841L271.532,56.262z M242.922,206.296l-86.255,5.653l41.45-122.79l86.256-5.652L242.922,206.296z
			 M273.402,166.463l30.117-89.218c0.861-2.551,0.394-5.364-1.248-7.499c-0.001-0.001-18.129-23.563-18.129-23.563l84.637-7.046
			l-41.41,122.677L273.402,166.463z"/>
	</g>
</g>
<g>
</g>
<g>
</g>
<g>
</g>
<g>
</g>
<g>
</g>
<g>
</g>
<g>
</g>
<g>
</g>
<g>
</g>
<g>
</g>
<g>
</g>
<g>
</g>
<g>
</g>
<g>
</g>
<g>
</g>
</svg>
