<?xml version="1.0" encoding="iso-8859-1"?>
<!-- Generator: Adobe Illustrator 19.0.0, SVG Export Plug-In . SVG Version: 6.00 Build 0)  -->
<svg version="1.1" id="Layer_1" xmlns="http://www.w3.org/2000/svg" xmlns:xlink="http://www.w3.org/1999/xlink" x="0px" y="0px"
	 viewBox="0 0 512.001 512.001" style="enable-background:new 0 0 512.001 512.001;" xml:space="preserve">
<g>
	<g>
		<path d="M475.776,424.921l-53.827-228.789V43.097c0-4.878-3.953-8.832-8.832-8.832h-29.25l-6.458-27.453
			c-1.116-4.749-5.872-7.69-10.621-6.575L222.153,34.264H80.29c-4.879,0-8.832,3.955-8.832,8.832v26.622l-28.66,6.743
			c-2.281,0.537-4.254,1.957-5.487,3.949s-1.624,4.391-1.088,6.671l35.235,149.765v235.772c0,4.878,3.953,8.832,8.832,8.832h48.716
			l5.586,23.74c0.537,2.28,1.957,4.254,3.949,5.487c1.408,0.871,3.019,1.322,4.649,1.322c0.676,0,1.354-0.078,2.023-0.234
			l128.852-30.315h139.053c4.879,0,8.832-3.955,8.832-8.832v-25.96l47.252-11.117C473.949,434.424,476.892,429.669,475.776,424.921z
			 M404.285,51.929v69.12l-16.262-69.12H404.285z M89.122,51.929h57.947L89.122,65.563V51.929z M89.122,463.787V311.93
			l35.727,151.857H89.122z M404.285,463.787h-55.138l55.138-12.972V463.787z M149.763,492.548L55.441,91.633l306.795-72.179
			l94.323,400.914L149.763,492.548z"/>
	</g>
</g>
<g>
	<g>
		<path d="M209.688,233.922l-8.294-35.251c-2.647-11.252-9.518-20.801-19.348-26.886c-1.891-1.171-3.851-2.183-5.859-3.042
			c1.245-1.526,2.407-3.134,3.461-4.835c6.339-10.241,8.312-22.338,5.554-34.061c-5.694-24.202-30.012-39.259-54.219-33.566
			c-11.723,2.758-21.672,9.917-28.013,20.158c-6.339,10.241-8.312,22.338-5.554,34.062c3.339,14.191,13.082,25.233,25.449,30.797
			c-8.644,10.133-12.535,24.098-9.258,38.026l8.294,35.251c0.957,4.068,4.585,6.812,8.59,6.812c0.67,0,1.35-0.077,2.031-0.237
			l70.589-16.607c2.28-0.536,4.254-1.956,5.487-3.947C209.833,238.603,210.224,236.203,209.688,233.922z M114.613,146.455
			c-1.678-7.131-0.478-14.489,3.378-20.717c3.856-6.229,9.908-10.583,17.039-12.26c2.104-0.495,4.208-0.732,6.282-0.732
			c12.436,0,23.727,8.532,26.696,21.148c1.678,7.131,0.478,14.489-3.378,20.717c-3.856,6.227-9.906,10.581-17.036,12.26
			l-0.008,0.002C132.859,170.331,118.075,161.174,114.613,146.455z M137.075,241.932l-6.271-26.653
			c-3.234-13.748,5.319-27.563,19.066-30.797l3.532-0.831c1.964-0.462,3.945-0.69,5.913-0.69c4.705,0,9.332,1.306,13.432,3.845
			c5.816,3.601,9.884,9.252,11.45,15.911l6.271,26.654L137.075,241.932z"/>
	</g>
</g>
<g>
	<g>
		<path d="M297.76,415.227c-1.119-4.748-5.874-7.689-10.621-6.575L179.445,433.99c-4.748,1.116-7.691,5.872-6.575,10.62
			c0.957,4.069,4.585,6.812,8.59,6.812c0.67,0,1.35-0.077,2.031-0.237l107.695-25.337
			C295.934,424.731,298.877,419.976,297.76,415.227z"/>
	</g>
</g>
<g>
	<g>
		<path d="M405.455,349.299c-1.119-4.749-5.882-7.69-10.621-6.575l-224.44,52.803c-4.748,1.118-7.691,5.872-6.575,10.62
			c0.957,4.069,4.585,6.812,8.59,6.812c0.67,0,1.351-0.077,2.031-0.237l224.44-52.803
			C403.629,358.802,406.572,354.047,405.455,349.299z"/>
	</g>
</g>
<g>
	<g>
		<path d="M396.406,310.836c-1.118-4.748-5.88-7.69-10.621-6.575l-224.44,52.803c-4.748,1.118-7.691,5.872-6.575,10.62
			c0.957,4.069,4.585,6.812,8.59,6.812c0.67,0,1.351-0.077,2.031-0.237l224.44-52.803
			C394.58,320.339,397.523,315.584,396.406,310.836z"/>
	</g>
</g>
<g>
	<g>
		<path d="M387.358,272.374c-1.118-4.75-5.88-7.689-10.621-6.575l-224.44,52.803c-4.748,1.118-7.691,5.872-6.575,10.62
			c0.957,4.069,4.585,6.812,8.59,6.812c0.67,0,1.351-0.077,2.031-0.237l224.44-52.803
			C385.532,281.877,388.475,277.122,387.358,272.374z"/>
	</g>
</g>
<g>
	<g>
		<path d="M378.308,233.912c-1.116-4.749-5.88-7.691-10.621-6.575l-224.44,52.803c-4.748,1.118-7.691,5.872-6.575,10.62
			c0.957,4.069,4.585,6.811,8.59,6.811c0.67,0,1.351-0.077,2.031-0.237l224.44-52.803
			C376.481,243.415,379.424,238.66,378.308,233.912z"/>
	</g>
</g>
<g>
	<g>
		<path d="M364.327,174.484c-1.118-4.749-5.873-7.691-10.621-6.575l-118.555,27.893c-4.748,1.116-7.691,5.872-6.575,10.62
			c0.957,4.069,4.585,6.812,8.59,6.812c0.67,0,1.35-0.077,2.031-0.237l118.555-27.893
			C362.5,183.987,365.443,179.233,364.327,174.484z"/>
	</g>
</g>
<g>
	<g>
		<path d="M355.278,136.023c-1.116-4.749-5.871-7.692-10.621-6.575L226.102,157.34c-4.748,1.116-7.691,5.872-6.575,10.62
			c0.957,4.069,4.585,6.812,8.59,6.812c0.67,0,1.35-0.077,2.031-0.237l118.555-27.893
			C353.451,145.526,356.394,140.771,355.278,136.023z"/>
	</g>
</g>
<g>
	<g>
		<path d="M276.953,95.393c-1.116-4.749-5.871-7.689-10.621-6.575l-53.395,12.562c-4.748,1.118-7.691,5.872-6.575,10.62
			c0.956,4.069,4.583,6.812,8.59,6.812c0.67,0,1.35-0.077,2.031-0.237l53.395-12.562
			C275.126,104.895,278.069,100.141,276.953,95.393z"/>
	</g>
</g>
<g>
</g>
<g>
</g>
<g>
</g>
<g>
</g>
<g>
</g>
<g>
</g>
<g>
</g>
<g>
</g>
<g>
</g>
<g>
</g>
<g>
</g>
<g>
</g>
<g>
</g>
<g>
</g>
<g>
</g>
</svg>
