<?xml version="1.0" encoding="iso-8859-1"?>
<!-- Generator: Adobe Illustrator 19.0.0, SVG Export Plug-In . SVG Version: 6.00 Build 0)  -->
<svg version="1.1" id="Layer_1" xmlns="http://www.w3.org/2000/svg" xmlns:xlink="http://www.w3.org/1999/xlink" x="0px" y="0px"
	 viewBox="0 0 512 512" style="enable-background:new 0 0 512 512;" xml:space="preserve">
<g>
	<g>
		<path d="M503.385,397.619h-25.64V134.292h13.168c4.759,0,8.615-3.857,8.615-8.615V66.712c0-4.758-3.856-8.615-8.615-8.615H21.088
			c-4.759,0-8.615,3.857-8.615,8.615v58.965c0,4.758,3.856,8.615,8.615,8.615h13.168V397.62H8.615c-4.759,0-8.615,3.857-8.615,8.615
			v39.053c0,4.758,3.856,8.615,8.615,8.615h494.77c4.759,0,8.615-3.857,8.615-8.615v-39.053
			C512,401.476,508.143,397.619,503.385,397.619z M29.703,117.062V75.327h452.595v41.735H29.703z M460.514,134.292V397.62H51.486
			V134.292H460.514z M494.77,436.672H17.23v-21.823h477.54V436.672z"/>
	</g>
</g>
<g>
	<g>
		<path d="M358.182,261.447l-47.953,36.486l-36.244-24.163c-3.084-2.057-7.134-1.909-10.062,0.363l-82.843,64.312l-26.636-14.529
			c-2.41-1.315-5.303-1.401-7.787-0.235l-37.155,17.446l42.267-61.18l24.3,22.416c1.702,1.571,3.949,2.382,6.284,2.271
			c2.315-0.12,4.483-1.166,6.017-2.904l80.961-91.759l34.88,38.05c1.698,1.852,4.102,2.872,6.631,2.789
			c2.512-0.082,4.861-1.257,6.436-3.216l52.839-65.789c2.98-3.709,2.387-9.132-1.322-12.112c-3.71-2.98-9.133-2.387-12.112,1.322
			l-46.554,57.963l-34.571-37.714c-1.651-1.8-4.032-2.817-6.433-2.794c-2.443,0.023-4.762,1.082-6.379,2.915l-81.473,92.338
			l-25.115-23.164c-1.834-1.691-4.305-2.508-6.792-2.23c-2.48,0.276-4.718,1.613-6.137,3.665l-66.049,95.603
			c-0.045,0.065-0.08,0.134-0.124,0.2c-0.091,0.14-0.18,0.28-0.263,0.424c-0.068,0.118-0.13,0.239-0.192,0.359
			c-0.063,0.123-0.125,0.247-0.182,0.372c-0.064,0.142-0.123,0.286-0.179,0.43c-0.042,0.11-0.084,0.222-0.123,0.333
			c-0.053,0.155-0.1,0.311-0.144,0.469c-0.031,0.111-0.06,0.222-0.086,0.334c-0.036,0.154-0.068,0.309-0.095,0.464
			c-0.022,0.124-0.041,0.249-0.059,0.374c-0.018,0.141-0.034,0.283-0.046,0.424c-0.011,0.144-0.021,0.287-0.025,0.432
			c-0.003,0.124-0.005,0.248-0.003,0.372c0.001,0.16,0.008,0.32,0.018,0.48c0.008,0.113,0.017,0.224,0.03,0.335
			c0.017,0.165,0.039,0.33,0.067,0.495c0.018,0.114,0.041,0.226,0.064,0.338c0.032,0.155,0.067,0.31,0.108,0.464
			c0.034,0.13,0.074,0.258,0.114,0.386c0.043,0.132,0.084,0.264,0.133,0.395c0.056,0.153,0.119,0.302,0.185,0.451
			c0.032,0.075,0.057,0.151,0.092,0.224c0.011,0.025,0.029,0.048,0.041,0.073c0.162,0.338,0.346,0.667,0.554,0.984
			c0.038,0.057,0.079,0.11,0.117,0.167c0.173,0.252,0.361,0.493,0.562,0.727c0.063,0.073,0.126,0.149,0.192,0.221
			c0.237,0.257,0.488,0.504,0.759,0.735c0.063,0.053,0.131,0.099,0.195,0.151c0.157,0.126,0.312,0.253,0.48,0.37
			c0.048,0.033,0.1,0.054,0.148,0.086c0.223,0.147,0.454,0.276,0.688,0.401c0.148,0.08,0.294,0.165,0.446,0.237
			c0.217,0.1,0.442,0.179,0.666,0.262c0.171,0.062,0.34,0.136,0.513,0.186c0.238,0.07,0.481,0.114,0.724,0.164
			c0.16,0.032,0.318,0.079,0.479,0.102c0.409,0.06,0.822,0.092,1.238,0.092c0.33,0,0.66-0.023,0.991-0.061
			c0.045-0.006,0.087-0.016,0.132-0.022c0.276-0.037,0.551-0.084,0.827-0.148c0.109-0.025,0.216-0.061,0.324-0.091
			c0.202-0.056,0.403-0.113,0.603-0.184c0.147-0.052,0.291-0.115,0.434-0.176c0.115-0.048,0.231-0.085,0.343-0.139l62.097-29.158
			l27.754,15.138c3.008,1.64,6.703,1.343,9.409-0.758l82.398-63.968l36.192,24.127c3.058,2.039,7.071,1.914,9.995-0.311
			l52.839-40.204c3.787-2.881,4.521-8.287,1.64-12.073C367.374,259.3,361.968,258.566,358.182,261.447z"/>
	</g>
</g>
<g>
	<g>
		<path d="M444.382,174.131c-0.001-15.946-12.974-28.919-28.919-28.919c-15.946,0-28.919,12.973-28.919,28.919
			c0,7.906,3.192,15.079,8.351,20.304c-5.159,5.225-8.351,12.398-8.351,20.304v13.363c0,4.758,3.856,8.615,8.615,8.615h40.608
			c4.759,0,8.615-3.857,8.615-8.615v-13.363c0-7.906-3.192-15.078-8.351-20.304C441.189,189.21,444.382,182.037,444.382,174.131z
			 M427.151,219.487h-0.001h-23.377v-4.747c0-6.445,5.243-11.689,11.689-11.689s11.689,5.244,11.689,11.689V219.487z
			 M415.462,185.82c-6.446,0-11.689-5.244-11.689-11.689s5.243-11.689,11.689-11.689c6.445,0,11.689,5.244,11.689,11.689
			S421.909,185.82,415.462,185.82z"/>
	</g>
</g>
<g>
	<g>
		<path d="M444.382,275.789c-0.001-15.946-12.974-28.919-28.919-28.919c-15.946,0-28.919,12.973-28.919,28.919
			c0,7.906,3.192,15.079,8.351,20.304c-5.159,5.225-8.351,12.398-8.351,20.304v13.363c0,4.758,3.856,8.615,8.615,8.615h40.608
			c4.759,0,8.615-3.857,8.615-8.615v-13.363c0-7.906-3.192-15.078-8.351-20.304C441.189,290.868,444.382,283.696,444.382,275.789z
			 M427.151,321.145h-0.001h-23.377v-4.747c0-6.445,5.243-11.689,11.689-11.689s11.689,5.244,11.689,11.689V321.145z
			 M415.462,287.478c-6.446,0-11.689-5.244-11.689-11.689s5.243-11.689,11.689-11.689c6.445,0,11.689,5.244,11.689,11.689
			S421.909,287.478,415.462,287.478z"/>
	</g>
</g>
<g>
</g>
<g>
</g>
<g>
</g>
<g>
</g>
<g>
</g>
<g>
</g>
<g>
</g>
<g>
</g>
<g>
</g>
<g>
</g>
<g>
</g>
<g>
</g>
<g>
</g>
<g>
</g>
<g>
</g>
</svg>
