<?xml version="1.0" encoding="iso-8859-1"?>
<!-- Generator: Adobe Illustrator 19.0.0, SVG Export Plug-In . SVG Version: 6.00 Build 0)  -->
<svg version="1.1" id="Layer_1" xmlns="http://www.w3.org/2000/svg" xmlns:xlink="http://www.w3.org/1999/xlink" x="0px" y="0px"
	 viewBox="0 0 511.999 511.999" style="enable-background:new 0 0 511.999 511.999;" xml:space="preserve">
<g>
	<g>
		<path d="M306.587,327.029l-45.202-45.167c4.219-6.457,6.49-13.997,6.49-21.888c0-22.139-18.019-40.15-40.166-40.15
			c-7.896,0-15.44,2.271-21.9,6.49l-45.197-45.182c-2.902-2.9-7.483-3.257-10.799-0.84l-39.237,28.614
			c-1.967,1.435-3.209,3.658-3.398,6.086s0.694,4.817,2.417,6.538l13.713,13.706L13.795,400.179
			c-2.186,3.293-1.758,7.667,1.024,10.474l7.506,7.572L9.698,430.851c-3.254,3.254-3.254,8.529,0,11.782l36.449,36.449
			c1.562,1.563,3.681,2.441,5.891,2.441s4.329-0.878,5.891-2.441l12.418-12.419l6.21,6.263c1.613,1.626,3.757,2.466,5.92,2.466
			c1.593,0,3.195-0.456,4.6-1.387l16.604-11.012l39.121,46.067c1.624,1.913,3.966,2.939,6.354,2.939c1.235,0,2.483-0.275,3.65-0.844
			l32.884-16.043c2.106-1.028,3.681-2.894,4.341-5.142s0.342-4.671-0.875-6.673l-8.268-13.611l15.861-15.845
			c2.565-2.563,3.178-6.49,1.516-9.712l-16.855-32.686l71.051-47.122l13.719,13.712c1.567,1.567,3.689,2.438,5.89,2.438
			c0.213,0,0.43-0.008,0.645-0.024c2.426-0.189,4.649-1.429,6.084-3.395l28.628-39.217
			C309.848,334.519,309.49,329.932,306.587,327.029z M227.709,236.486c12.959,0.001,23.503,10.536,23.503,23.488
			c0,3.379-0.732,6.64-2.081,9.631l-31.057-31.04C221.067,237.217,224.329,236.486,227.709,236.486z M52.038,461.409l-24.666-24.666
			l6.685-6.685l24.56,24.773L52.038,461.409z M151.313,493.343l-33.649-39.624l24.254-16.086l28.251,46.51L151.313,493.343z
			 M171.983,455.028l-16.166-26.613l11.623-7.708l13.225,25.647L171.983,455.028z M83.573,456.337L31.431,403.74l103.9-156.487
			l105.104,105.048L83.573,456.337z M271.075,359.369L128.262,216.631l25.609-18.676l135.888,135.817L271.075,359.369z"/>
	</g>
</g>
<g>
	<g>
		<path d="M499.622,155.599l-51.325-21.442l52.379-87.79c1.96-3.284,1.432-7.478-1.277-10.175
			c-2.709-2.696-6.906-3.203-10.182-1.226l-68.535,41.367l4.042-40.149c0.307-3.047-1.083-6.017-3.619-7.734
			c-2.533-1.716-5.807-1.904-8.525-0.487l-51.391,26.816l-16.85-49.15c-1.118-3.258-4.123-5.493-7.566-5.623
			c-3.414-0.125-6.607,1.87-7.969,5.033l-27.771,64.568l-38.794-21.88c-2.478-1.397-5.501-1.434-8.013-0.094
			c-2.512,1.34-4.166,3.868-4.387,6.706l-11.662,149.958c-0.357,4.588,3.073,8.596,7.66,8.952c4.577,0.348,8.595-3.073,8.952-7.66
			l10.65-136.925l35.488,20.016c2.06,1.162,4.519,1.393,6.757,0.637c2.242-0.756,4.055-2.429,4.989-4.602l22.906-53.255
			l12.99,37.891c0.788,2.297,2.537,4.136,4.792,5.035c2.253,0.9,4.79,0.772,6.943-0.351l46.292-24.155l-4.165,41.361
			c-0.317,3.139,1.169,6.189,3.835,7.876c2.667,1.687,6.057,1.723,8.76,0.092l54.258-32.75l-40.222,67.414
			c-1.237,2.074-1.514,4.583-0.759,6.878c0.758,2.294,2.473,4.147,4.701,5.078l39.501,16.503l-40.547,13.245
			c-2.763,0.903-4.856,3.18-5.522,6.01c-0.668,2.829,0.19,5.802,2.259,7.843l20.042,19.761l-164.362,42.673
			c-4.453,1.156-7.126,5.704-5.971,10.158c0.974,3.751,4.355,6.24,8.059,6.24c0.692,0,1.397-0.088,2.1-0.27l178.573-46.363
			c2.901-0.753,5.175-3.008,5.953-5.904c0.776-2.896-0.063-5.986-2.198-8.093l-20.755-20.463l48.858-15.961
			c3.309-1.082,5.599-4.107,5.738-7.587C504.875,160.141,502.836,156.942,499.622,155.599z"/>
	</g>
</g>
<g>
	<g>
		<path d="M373.532,172.23c-2.422-3.914-7.557-5.119-11.468-2.698l-69.979,43.321c-3.914,2.422-5.121,7.557-2.699,11.469
			c1.576,2.546,4.302,3.947,7.092,3.947c1.497,0,3.011-0.403,4.377-1.249l69.979-43.321
			C374.745,181.278,375.954,176.143,373.532,172.23z"/>
	</g>
</g>
<g>
	<g>
		<path d="M326.633,138.426c-3.607-2.856-8.847-2.247-11.704,1.361l-31.657,39.988c-2.855,3.608-2.246,8.848,1.362,11.704
			c1.531,1.212,3.355,1.8,5.165,1.8c2.458,0,4.893-1.084,6.538-3.16l31.657-39.988C330.849,146.522,330.241,141.282,326.633,138.426
			z"/>
	</g>
</g>
<g>
</g>
<g>
</g>
<g>
</g>
<g>
</g>
<g>
</g>
<g>
</g>
<g>
</g>
<g>
</g>
<g>
</g>
<g>
</g>
<g>
</g>
<g>
</g>
<g>
</g>
<g>
</g>
<g>
</g>
</svg>
