<?xml version="1.0" encoding="iso-8859-1"?>
<!-- Generator: Adobe Illustrator 19.0.0, SVG Export Plug-In . SVG Version: 6.00 Build 0)  -->
<svg version="1.1" id="Layer_1" xmlns="http://www.w3.org/2000/svg" xmlns:xlink="http://www.w3.org/1999/xlink" x="0px" y="0px"
	 viewBox="0 0 512 512" style="enable-background:new 0 0 512 512;" xml:space="preserve">
<g>
	<g>
		<path d="M423.347,221.289c11.323-8.622,18.65-22.234,18.65-37.533c0-26.002-21.154-47.157-47.157-47.157
			s-47.157,21.154-47.157,47.157c0,15.297,7.327,28.911,18.65,37.533c-11.323,8.622-18.649,22.235-18.649,37.533
			c0,5.315,4.309,9.624,9.624,9.624h75.064c5.315,0,9.624-4.309,9.624-9.624C441.997,243.525,434.67,229.911,423.347,221.289z
			 M368.644,249.198c3.929-10.661,14.19-18.284,26.198-18.284c12.008,0,22.267,7.624,26.197,18.284H368.644z M394.842,211.666
			c-15.39,0-27.909-12.52-27.909-27.909s12.519-27.909,27.909-27.909c15.389,0,27.908,12.519,27.908,27.909
			C422.75,199.147,410.231,211.666,394.842,211.666z"/>
	</g>
</g>
<g>
	<g>
		<path d="M502.376,13.537H117.922c-5.315,0-9.624,4.309-9.624,9.624v276.01H36.698C16.464,299.171,0,315.633,0,335.869v152.97
			c0,5.315,4.309,9.624,9.624,9.624h384.454c5.315,0,9.624-4.309,9.624-9.624V372.568h71.599c20.236,0,36.698-16.464,36.698-36.698
			V23.161C512,17.846,507.691,13.537,502.376,13.537z M108.298,318.419v17.45c0,9.623-7.829,17.45-17.45,17.45
			c-9.622,0-17.45-7.829-17.45-17.45c0-6.312-1.603-12.257-4.421-17.45H108.298z M384.456,479.215h-0.001H19.248V335.869
			c0-9.623,7.829-17.45,17.45-17.45c9.621,0,17.45,7.828,17.45,17.45c0,20.236,16.462,36.698,36.698,36.698h293.608V479.215z
			 M492.752,335.869c0,9.623-7.828,17.45-17.45,17.45H123.124c2.819-5.193,4.422-11.138,4.422-17.45V32.785h365.206V335.869z"/>
	</g>
</g>
<g>
	<g>
		<path d="M450.935,59.923H174.778c-5.315,0-9.624,4.309-9.624,9.624s4.309,9.624,9.624,9.624h276.157
			c5.315,0,9.624-4.309,9.624-9.624S456.25,59.923,450.935,59.923z"/>
	</g>
</g>
<g>
	<g>
		<path d="M286.966,105.59H174.778c-5.315,0-9.624,4.309-9.624,9.624s4.309,9.624,9.624,9.624h112.188
			c5.315,0,9.624-4.309,9.624-9.624S292.281,105.59,286.966,105.59z"/>
	</g>
</g>
<g>
	<g>
		<path d="M286.966,175.533H174.778c-5.315,0-9.624,4.309-9.624,9.624c0,5.315,4.309,9.624,9.624,9.624h112.188
			c5.315,0,9.624-4.309,9.624-9.624C296.59,179.842,292.281,175.533,286.966,175.533z"/>
	</g>
</g>
<g>
	<g>
		<path d="M286.966,245.474H174.778c-5.315,0-9.624,4.309-9.624,9.624s4.309,9.624,9.624,9.624h112.188
			c5.315,0,9.624-4.309,9.624-9.624S292.281,245.474,286.966,245.474z"/>
	</g>
</g>
<g>
	<g>
		<path d="M286.966,280.444H174.778c-5.315,0-9.624,4.309-9.624,9.624s4.309,9.624,9.624,9.624h112.188
			c5.315,0,9.624-4.309,9.624-9.624S292.281,280.444,286.966,280.444z"/>
	</g>
</g>
<g>
	<g>
		<path d="M286.966,315.415H174.778c-5.315,0-9.624,4.309-9.624,9.624c0,5.315,4.309,9.624,9.624,9.624h112.188
			c5.315,0,9.624-4.309,9.624-9.624C296.59,319.724,292.281,315.415,286.966,315.415z"/>
	</g>
</g>
<g>
	<g>
		<path d="M286.966,210.503H174.778c-5.315,0-9.624,4.309-9.624,9.624s4.309,9.624,9.624,9.624h112.188
			c5.315,0,9.624-4.309,9.624-9.624S292.281,210.503,286.966,210.503z"/>
	</g>
</g>
<g>
	<g>
		<path d="M286.966,140.561H174.778c-5.315,0-9.624,4.309-9.624,9.624c0,5.315,4.309,9.624,9.624,9.624h112.188
			c5.315,0,9.624-4.309,9.624-9.624C296.59,144.87,292.281,140.561,286.966,140.561z"/>
	</g>
</g>
<g>
	<g>
		<path d="M450.935,105.59H338.746c-5.315,0-9.624,4.309-9.624,9.624s4.309,9.624,9.624,9.624h112.188
			c5.315,0,9.624-4.309,9.624-9.624S456.25,105.59,450.935,105.59z"/>
	</g>
</g>
<g>
	<g>
		<path d="M450.935,280.444H338.746c-5.315,0-9.624,4.309-9.624,9.624s4.309,9.624,9.624,9.624h112.188
			c5.315,0,9.624-4.309,9.624-9.624S456.25,280.444,450.935,280.444z"/>
	</g>
</g>
<g>
	<g>
		<path d="M450.935,315.415H338.746c-5.315,0-9.624,4.309-9.624,9.624c0,5.315,4.309,9.624,9.624,9.624h112.188
			c5.315,0,9.624-4.309,9.624-9.624C460.559,319.724,456.25,315.415,450.935,315.415z"/>
	</g>
</g>
<g>
	<g>
		<path d="M175.961,392.803H63.773c-5.315,0-9.624,4.309-9.624,9.624c0,5.315,4.309,9.624,9.624,9.624h112.188
			c5.315,0,9.624-4.309,9.624-9.624C185.585,397.112,181.276,392.803,175.961,392.803z"/>
	</g>
</g>
<g>
	<g>
		<path d="M175.961,427.774H63.773c-5.315,0-9.624,4.309-9.624,9.624s4.309,9.624,9.624,9.624h112.188
			c5.315,0,9.624-4.309,9.624-9.624S181.278,427.774,175.961,427.774z"/>
	</g>
</g>
<g>
	<g>
		<path d="M339.931,392.803H227.742c-5.315,0-9.624,4.309-9.624,9.624c0,5.315,4.308,9.624,9.624,9.624h112.188
			c5.315,0,9.624-4.309,9.624-9.624C349.555,397.112,345.246,392.803,339.931,392.803z"/>
	</g>
</g>
<g>
	<g>
		<path d="M339.931,427.774H227.742c-5.315,0-9.624,4.309-9.624,9.624s4.308,9.624,9.624,9.624h112.188
			c5.315,0,9.624-4.309,9.624-9.624S345.246,427.774,339.931,427.774z"/>
	</g>
</g>
<g>
</g>
<g>
</g>
<g>
</g>
<g>
</g>
<g>
</g>
<g>
</g>
<g>
</g>
<g>
</g>
<g>
</g>
<g>
</g>
<g>
</g>
<g>
</g>
<g>
</g>
<g>
</g>
<g>
</g>
</svg>
