<?xml version="1.0" encoding="iso-8859-1"?>
<!-- Generator: Adobe Illustrator 19.0.0, SVG Export Plug-In . SVG Version: 6.00 Build 0)  -->
<svg version="1.1" id="Layer_1" xmlns="http://www.w3.org/2000/svg" xmlns:xlink="http://www.w3.org/1999/xlink" x="0px" y="0px"
	 viewBox="0 0 511.998 511.998" style="enable-background:new 0 0 511.998 511.998;" xml:space="preserve">
<g>
	<g>
		<path d="M346.57,135.305c-5.215-5.198-12.136-8.061-19.489-8.061c-3.807,0-7.437,0.775-10.738,2.176V48.57
			c0-14.442-11.749-26.192-26.192-26.192c-3.325,0-6.506,0.63-9.434,1.765C279.666,10.656,268.364,0,254.611,0
			c-14.442,0-26.192,11.75-26.192,26.192v3.247c-2.905-1.114-6.054-1.731-9.347-1.731c-14.442,0-26.192,11.75-26.192,26.192v11.521
			c-2.904-1.113-6.053-1.729-9.343-1.729c-7.011,0-13.593,2.731-18.512,7.667c-4.958,4.94-7.688,11.519-7.688,18.522v121.06
			c0,18.121,4.219,36.31,12.201,52.602c0.029,0.061,0.06,0.12,0.091,0.18c0.016,0.033,0.033,0.066,0.048,0.099
			c8.149,16.329,12.455,34.328,12.455,52.054v43.404h-16.278c-4.651,0-8.423,3.771-8.423,8.423v97.691
			c0,4.651,3.771,8.423,8.423,8.423h4.986v29.761c0,4.651,3.771,8.423,8.423,8.423c4.651,0,8.423-3.771,8.423-8.423v-29.761h109.661
			v29.761c0,4.651,3.771,8.423,8.423,8.423c4.652,0,8.423-3.771,8.423-8.423v-29.761h4.987c4.651,0,8.423-3.771,8.423-8.423v-97.691
			c0-4.651-3.771-8.423-8.423-8.423h-16.279v-46.29c0-13.928,7.108-26.953,19.063-34.895c0.111-0.069,0.221-0.139,0.329-0.211
			c20.267-13.738,32.367-36.549,32.367-61.022v-62.046C354.661,147.451,351.792,140.527,346.57,135.305z M310.758,376.126v80.845
			h-0.001H174.278v-80.845H310.758z M203.976,355.518c0-13.004,10.579-23.583,23.583-23.583c12.998,0,23.572,10.579,23.572,23.583
			c0,1.276-0.125,2.528-0.323,3.762h-46.508C204.101,358.046,203.976,356.795,203.976,355.518z M265.392,341.312h20.663v17.968
			h-18.257c0.115-1.244,0.176-2.498,0.176-3.762C267.975,350.52,267.058,345.734,265.392,341.312z M337.816,216.86
			c0,18.816-9.272,36.36-24.815,46.971c-0.103,0.065-0.201,0.128-0.291,0.189c-16.689,11.034-26.654,29.34-26.654,48.97v11.477
			h-32.649c-7.012-5.85-16.025-9.377-25.848-9.377c-11.15,0-21.26,4.537-28.581,11.862v-11.075c0-20.261-4.891-40.8-14.144-59.407
			c-0.074-0.164-0.164-0.348-0.272-0.549c-6.791-13.943-10.38-29.49-10.38-44.978V89.882c0-2.493,0.97-4.832,2.755-6.61
			c1.755-1.763,4.1-2.733,6.6-2.733c5.152,0,9.343,4.191,9.343,9.343v77.776c0,4.651,3.771,8.423,8.423,8.423
			s8.423-3.771,8.423-8.423V53.901c0-5.154,4.193-9.347,9.347-9.347c5.153,0,9.347,4.193,9.347,9.347V160.22
			c0,4.652,3.771,8.423,8.423,8.423s8.423-3.771,8.423-8.423V26.192c0-5.154,4.193-9.347,9.347-9.347
			c5.154,0,9.347,4.193,9.347,9.347v139.813c0,4.651,3.771,8.423,8.423,8.423c4.651,0,8.423-3.771,8.423-8.423V48.57
			c0-5.154,4.193-9.347,9.347-9.347s9.347,4.192,9.347,9.347v155.51c0,4.652,3.771,8.423,8.423,8.423s8.423-3.771,8.423-8.423
			l0.002-49.265c0-5.914,4.817-10.725,10.736-10.725c2.864,0,5.562,1.117,7.588,3.137c2.03,2.03,3.148,4.726,3.148,7.588V216.86z"/>
	</g>
</g>
<g>
	<g>
		<circle cx="197.963" cy="418.804" r="8.423"/>
	</g>
</g>
<g>
</g>
<g>
</g>
<g>
</g>
<g>
</g>
<g>
</g>
<g>
</g>
<g>
</g>
<g>
</g>
<g>
</g>
<g>
</g>
<g>
</g>
<g>
</g>
<g>
</g>
<g>
</g>
<g>
</g>
</svg>
