<?xml version="1.0" encoding="iso-8859-1"?>
<!-- Generator: Adobe Illustrator 19.0.0, SVG Export Plug-In . SVG Version: 6.00 Build 0)  -->
<svg version="1.1" id="Layer_1" xmlns="http://www.w3.org/2000/svg" xmlns:xlink="http://www.w3.org/1999/xlink" x="0px" y="0px"
	 viewBox="0 0 512.001 512.001" style="enable-background:new 0 0 512.001 512.001;" xml:space="preserve">
<g>
	<g>
		<path d="M502.873,411.153H390.746l-19.071-19.072c40.315-35.029,65.846-86.652,65.846-144.126
			c0-64.319-31.974-121.307-80.859-155.915l15.832-15.832h112.127c5.042,0,9.127-4.086,9.127-9.127c0-5.041-4.085-9.127-9.127-9.127
			H368.714c-2.421,0-4.741,0.961-6.455,2.674l-21.368,21.368C313.06,66.122,280.877,57.04,246.61,57.04
			c-105.27,0-190.913,85.643-190.913,190.913c0,79.199,48.479,147.282,117.319,176.151l-51.531,47.282H9.127
			c-5.041,0-9.127,4.086-9.127,9.127c0,5.041,4.086,9.127,9.127,9.127h115.908c2.284,0,4.487-0.857,6.17-2.402l61.257-56.205
			c17.173,5.088,35.343,7.833,54.146,7.833c41.204,0,79.4-13.123,110.633-35.407l23.271,23.271c1.712,1.711,4.033,2.674,6.455,2.674
			h115.907c5.042,0,9.127-4.086,9.127-9.127C512.001,415.237,507.915,411.153,502.873,411.153z M255.738,75.538
			c25.802,1.351,50.116,8.398,71.719,19.896L306.59,116.3c-3.567,3.564-3.567,9.344-0.002,12.907
			c1.783,1.783,4.118,2.674,6.455,2.674c2.335,0,4.672-0.891,6.455-2.674l24.055-24.055c14.681,9.998,27.749,22.194,38.722,36.117
			l-93.666,66.357c-8.612-8.965-20.048-15.193-32.869-17.22V75.538z M286.622,247.955c0,22.064-17.951,40.014-40.014,40.014
			c-22.064,0-40.014-17.95-40.014-40.014c0-22.064,17.95-40.014,40.014-40.014C268.671,207.941,286.622,225.891,286.622,247.955z
			 M246.607,420.614c-13.105,0-25.872-1.476-38.15-4.256l11.275-10.345c3.714-3.409,3.962-9.182,0.555-12.896
			c-3.407-3.714-9.182-3.962-12.896-0.555l-19.4,17.8C121.554,386.31,73.948,322.59,73.948,247.955
			c0-92.143,72.554-167.656,163.532-172.418v114.87c-27.808,4.394-49.141,28.524-49.141,57.548c0,32.13,26.139,58.268,58.268,58.268
			c6.428,0,12.609-1.061,18.395-2.992l43.11,106.051C288.995,416.595,268.264,420.614,246.607,420.614z M358.734,379.139
			l-20.985-20.986c-3.566-3.563-9.344-3.564-12.908,0s-3.564,9.342,0,12.907l19.292,19.292c-6.169,4.24-12.621,8.093-19.329,11.515
			l-43.538-107.104c14.315-10.626,23.61-27.65,23.61-46.807c0-9.086-2.093-17.691-5.818-25.363l93.736-66.406
			c16.76,26.603,26.473,58.071,26.473,91.768C419.267,300.397,395.76,347.447,358.734,379.139z"/>
	</g>
</g>
<g>
	<g>
		<path d="M502.873,376.471h-71.187c-5.041,0-9.127,4.086-9.127,9.127c0,5.041,4.085,9.127,9.127,9.127h71.187
			c5.042,0,9.127-4.086,9.127-9.127C512,380.558,507.915,376.471,502.873,376.471z"/>
	</g>
</g>
<g>
	<g>
		<path d="M484.62,22.361h-71.187c-5.042,0-9.127,4.086-9.127,9.127c0,5.041,4.086,9.127,9.127,9.127h71.187
			c5.042,0,9.127-4.086,9.127-9.127C493.747,26.448,489.662,22.361,484.62,22.361z"/>
	</g>
</g>
<g>
	<g>
		<path d="M80.314,434.882H9.127c-5.041,0-9.127,4.086-9.127,9.127s4.086,9.127,9.127,9.127h71.187c5.041,0,9.127-4.086,9.127-9.127
			S85.355,434.882,80.314,434.882z"/>
	</g>
</g>
<g>
</g>
<g>
</g>
<g>
</g>
<g>
</g>
<g>
</g>
<g>
</g>
<g>
</g>
<g>
</g>
<g>
</g>
<g>
</g>
<g>
</g>
<g>
</g>
<g>
</g>
<g>
</g>
<g>
</g>
</svg>
