<?xml version="1.0" encoding="iso-8859-1"?>
<!-- Generator: Adobe Illustrator 19.0.0, SVG Export Plug-In . SVG Version: 6.00 Build 0)  -->
<svg version="1.1" id="Layer_1" xmlns="http://www.w3.org/2000/svg" xmlns:xlink="http://www.w3.org/1999/xlink" x="0px" y="0px"
	 viewBox="0 0 512.001 512.001" style="enable-background:new 0 0 512.001 512.001;" xml:space="preserve">
<g>
	<g>
		<path d="M366.474,268.02l-21.67-7.468V9.687c0-5.341-4.345-9.687-9.685-9.687H129.998c-5.341,0-9.687,4.345-9.687,9.687v306.43
			c0,5.341,4.345,9.685,9.687,9.685h23.056c3.138,7.94,8.495,17.409,9.304,18.827c5.405,9.457,9.672,15.117,12.996,18.556
			c-2.274,13.564-5.458,26.981-9.561,40.172c-5.082,16.338-2.477,33.824,7.143,47.971l7.899,11.616
			c8.139,11.969,12.441,25.948,12.441,40.423c0,4.768,3.866,8.634,8.634,8.634c4.768,0,8.634-3.866,8.634-8.634
			c0-17.953-5.336-35.288-15.43-50.132l-7.899-11.616c-6.645-9.772-8.443-21.849-4.934-33.134
			c9.647-31.02,14.538-63.219,14.538-95.704v-59.277c0-16.3,13.261-29.562,29.562-29.562s29.562,13.261,29.562,29.562v57.683
			c0,21.997,5.042,44.101,14.583,63.918c2.069,4.296,7.227,6.104,11.525,4.035c4.296-2.068,6.104-7.229,4.035-11.525
			c-6.306-13.102-10.386-27.335-12.039-41.813h61.07c5.341,0,9.685-4.345,9.685-9.685V302.06
			c13.386,15.557,19.147,36.748,15.156,57.081l-41.239,136.883c-1.387,4.562,1.187,9.385,5.75,10.772
			c0.837,0.254,1.682,0.375,2.514,0.375c3.702,0,7.125-2.4,8.258-6.126l55.134-187.826
			C395.539,294.272,385.04,274.418,366.474,268.02z M178.496,338.026c-2.398-4.071-4.733-8.41-6.601-12.224h7.37
			C179.091,329.885,178.834,333.959,178.496,338.026z M327.535,308.534h-54.321v-55.03c0-25.822-21.008-46.83-46.83-46.83
			c-25.822,0-46.83,21.008-46.83,46.83v55.029H137.58V17.269h189.955V308.534z M373.717,308.679l-1.525,5.595
			c-4.668-11.514-11.843-22.043-21.224-30.633l-4.73-4.33l14.612,5.036C370.844,287.79,376.495,298.479,373.717,308.679z"/>
	</g>
</g>
<g>
	<g>
		<path d="M250.766,240.899c-1.619-1.612-3.81-2.517-6.092-2.517c-0.011,0-0.024,0-0.035,0l-36.84,0.15
			c-4.755,0.02-8.6,3.88-8.6,8.634v9.141c0,14.918,12.136,27.054,27.054,27.054c7.218,0,14.011-2.808,19.148-7.926
			c5.099-5.116,7.907-11.909,7.907-19.128v-9.291C253.308,244.72,252.394,242.519,250.766,240.899z M236.039,256.307
			c0,2.617-1.019,5.08-2.848,6.917c-1.857,1.85-4.321,2.869-6.937,2.869c-5.396,0-9.786-4.39-9.786-9.786v-0.541l19.571-0.079
			V256.307z"/>
	</g>
</g>
<g>
	<g>
		<path d="M236.615,305.235h-24.176c-4.768,0-8.634,3.866-8.634,8.634c0,4.768,3.866,8.634,8.634,8.634h24.176
			c4.768,0,8.634-3.866,8.634-8.634C245.249,309.101,241.383,305.235,236.615,305.235z"/>
	</g>
</g>
<g>
	<g>
		<path d="M236.615,325.958h-24.176c-4.768,0-8.634,3.866-8.634,8.634s3.866,8.634,8.634,8.634h24.176
			c4.768,0,8.634-3.866,8.634-8.634S241.383,325.958,236.615,325.958z"/>
	</g>
</g>
<g>
	<g>
		<path d="M208.409,38.146H158.33c-4.768,0-8.634,3.866-8.634,8.634V96.86c0,4.768,3.866,8.634,8.634,8.634h50.079
			c4.768,0,8.634-3.866,8.634-8.634V46.781C217.043,42.012,213.178,38.146,208.409,38.146z M199.775,88.226h-32.81v-32.81h32.81
			V88.226z"/>
	</g>
</g>
<g>
	<g>
		<path d="M189.413,198.745H158.33c-4.768,0-8.634,3.866-8.634,8.634v50.079c0,4.768,3.866,8.634,8.634,8.634h8.059
			c4.768,0,8.634-3.866,8.634-8.634c0-4.575-3.558-8.319-8.059-8.615v-32.83h22.449c4.768,0,8.634-3.866,8.634-8.634
			C198.048,202.611,194.182,198.745,189.413,198.745z"/>
	</g>
</g>
<g>
	<g>
		<path d="M298.782,78.152h-59.865c-4.768,0-8.634,3.866-8.634,8.634c0,4.768,3.866,8.634,8.634,8.634h59.865
			c4.77,0,8.634-3.866,8.634-8.634C307.416,82.018,303.551,78.152,298.782,78.152z"/>
	</g>
</g>
<g>
	<g>
		<path d="M298.782,48.22h-59.865c-4.768,0-8.634,3.866-8.634,8.634c0,4.768,3.866,8.634,8.634,8.634h59.865
			c4.77,0,8.634-3.866,8.634-8.634C307.416,52.086,303.551,48.22,298.782,48.22z"/>
	</g>
</g>
<g>
	<g>
		<path d="M208.409,118.446H158.33c-4.768,0-8.634,3.866-8.634,8.634v50.079c0,4.768,3.866,8.634,8.634,8.634h50.079
			c4.768,0,8.634-3.866,8.634-8.634V127.08C217.043,122.312,213.178,118.446,208.409,118.446z M199.775,168.525h-32.81v-32.81h32.81
			V168.525z"/>
	</g>
</g>
<g>
	<g>
		<path d="M298.782,158.452h-59.865c-4.768,0-8.634,3.866-8.634,8.634c0,4.768,3.866,8.634,8.634,8.634h59.865
			c4.77,0,8.634-3.866,8.634-8.634C307.416,162.317,303.551,158.452,298.782,158.452z"/>
	</g>
</g>
<g>
	<g>
		<path d="M298.782,128.519h-59.865c-4.768,0-8.634,3.866-8.634,8.634s3.866,8.634,8.634,8.634h59.865
			c4.77,0,8.634-3.866,8.634-8.634S303.551,128.519,298.782,128.519z"/>
	</g>
</g>
<g>
	<g>
		<path d="M298.782,238.751h-11.512c-4.77,0-8.634,3.866-8.634,8.634c0,4.768,3.865,8.634,8.634,8.634h11.512
			c4.77,0,8.634-3.866,8.634-8.634C307.416,242.617,303.55,238.751,298.782,238.751z"/>
	</g>
</g>
<g>
	<g>
		<path d="M298.782,208.819h-21.874c-4.77,0-8.634,3.866-8.634,8.634s3.865,8.634,8.634,8.634h21.874
			c4.77,0,8.634-3.866,8.634-8.634S303.55,208.819,298.782,208.819z"/>
	</g>
</g>
<g>
	<g>
		<circle cx="183.371" cy="152.125" r="8.634"/>
	</g>
</g>
<g>
</g>
<g>
</g>
<g>
</g>
<g>
</g>
<g>
</g>
<g>
</g>
<g>
</g>
<g>
</g>
<g>
</g>
<g>
</g>
<g>
</g>
<g>
</g>
<g>
</g>
<g>
</g>
<g>
</g>
</svg>
