<?xml version="1.0" encoding="iso-8859-1"?>
<!-- Generator: Adobe Illustrator 19.0.0, SVG Export Plug-In . SVG Version: 6.00 Build 0)  -->
<svg version="1.1" id="Layer_1" xmlns="http://www.w3.org/2000/svg" xmlns:xlink="http://www.w3.org/1999/xlink" x="0px" y="0px"
	 viewBox="0 0 512.001 512.001" style="enable-background:new 0 0 512.001 512.001;" xml:space="preserve">
<g>
	<g>
		<path d="M100.288,429.229c10.698-8.146,17.62-21.008,17.62-35.46c0-24.566-19.986-44.552-44.552-44.552
			s-44.551,19.987-44.551,44.552c0,14.452,6.922,27.314,17.62,35.46c-10.698,8.146-17.62,21.006-17.62,35.46v23.336
			c0,5.021,4.071,9.093,9.093,9.093h70.919c5.022,0,9.093-4.071,9.093-9.093v-23.336
			C117.908,450.237,110.986,437.375,100.288,429.229z M99.723,478.932H46.99v-14.244c0-14.538,11.828-26.367,26.367-26.367
			s26.366,11.829,26.366,26.367V478.932z M73.357,420.137c-14.54,0-26.367-11.829-26.367-26.367
			c0-14.538,11.828-26.367,26.367-26.367s26.367,11.828,26.367,26.367C99.724,408.309,87.897,420.137,73.357,420.137z"/>
	</g>
</g>
<g>
	<g>
		<path d="M282.93,429.229c10.7-8.146,17.621-21.008,17.621-35.46c0-24.566-19.986-44.552-44.552-44.552
			s-44.552,19.986-44.552,44.552c0,14.452,6.922,27.314,17.62,35.46c-10.698,8.146-17.62,21.006-17.62,35.46v23.336
			c0,5.021,4.071,9.093,9.093,9.093h70.919c5.021,0,9.093-4.071,9.093-9.093v-23.336
			C300.551,450.237,293.628,437.375,282.93,429.229z M282.367,478.932h-52.733v-14.244c0-14.538,11.828-26.367,26.367-26.367
			c14.538,0,26.366,11.828,26.366,26.367V478.932z M256.001,420.137c-14.54,0-26.367-11.829-26.367-26.367
			c0-14.538,11.828-26.367,26.367-26.367s26.367,11.828,26.367,26.367C282.368,408.309,270.54,420.137,256.001,420.137z"/>
	</g>
</g>
<g>
	<g>
		<path d="M465.575,429.229c10.7-8.146,17.621-21.008,17.621-35.46c0-24.566-19.986-44.552-44.552-44.552
			s-44.552,19.986-44.552,44.552c0,14.452,6.922,27.314,17.62,35.46c-10.698,8.146-17.62,21.006-17.62,35.46v23.336
			c0,5.021,4.071,9.093,9.093,9.093h70.919c5.022,0,9.093-4.071,9.093-9.093v-23.336
			C483.195,450.237,476.273,437.375,465.575,429.229z M465.011,478.932h-52.733v-14.244c0-14.538,11.828-26.367,26.367-26.367
			c14.54,0,26.366,11.829,26.366,26.367V478.932z M438.645,420.137c-14.54,0-26.367-11.829-26.367-26.367
			c0-14.538,11.828-26.367,26.367-26.367s26.367,11.828,26.367,26.367C465.012,408.309,453.185,420.137,438.645,420.137z"/>
	</g>
</g>
<g>
	<g>
		<path d="M326.29,188.755l-64.262-56.905c-3.442-3.047-8.614-3.047-12.056,0l-64.263,56.905c-2.828,2.505-3.814,6.498-2.474,10.031
			s4.724,5.869,8.502,5.869h27.205v116.379c0,5.021,4.071,9.093,9.093,9.093h55.929c5.022,0,9.093-4.071,9.093-9.093V204.655h27.205
			c3.779,0,7.163-2.336,8.502-5.869S329.118,191.259,326.29,188.755z M283.966,186.469c-5.021,0-9.093,4.071-9.093,9.093v116.379
			h-37.744V195.562c0-5.022-4.071-9.093-9.093-9.093h-12.315l40.279-35.667l40.279,35.667H283.966z"/>
	</g>
</g>
<g>
	<g>
		<path d="M511.41,260.905c-1.34-3.533-4.723-5.869-8.502-5.869h-27.205V127.812c0-5.022-4.071-9.093-9.093-9.093h-55.93
			c-5.021,0-9.093,4.071-9.093,9.093v127.224h-27.205c-3.779,0-7.162,2.336-8.502,5.869c-1.338,3.533-0.354,7.526,2.474,10.031
			l64.263,56.904c1.72,1.523,3.875,2.285,6.028,2.285s4.307-0.761,6.028-2.285l64.263-56.904
			C511.764,268.431,512.75,264.439,511.41,260.905z M438.645,308.888l-40.279-35.666h12.314c5.022,0,9.093-4.071,9.093-9.093
			V136.906h37.745V264.13c0,5.021,4.071,9.093,9.093,9.093h12.314L438.645,308.888z"/>
	</g>
</g>
<g>
	<g>
		<path d="M143.646,74.073L79.385,17.168c-3.442-3.047-8.614-3.047-12.056,0L3.065,74.073c-2.828,2.505-3.814,6.498-2.474,10.031
			c1.338,3.533,4.723,5.869,8.502,5.869h27.205v231.06c0,5.021,4.071,9.093,9.093,9.093h55.93c5.021,0,9.093-4.071,9.093-9.093
			V89.973h27.205c3.779,0,7.163-2.336,8.502-5.869C147.46,80.571,146.475,76.578,143.646,74.073z M101.321,71.788
			c-5.022,0-9.093,4.071-9.093,9.093v231.06H54.485V80.88c0-5.021-4.071-9.093-9.093-9.093H33.077L73.356,36.12l40.279,35.667
			H101.321z"/>
	</g>
</g>
<g>
</g>
<g>
</g>
<g>
</g>
<g>
</g>
<g>
</g>
<g>
</g>
<g>
</g>
<g>
</g>
<g>
</g>
<g>
</g>
<g>
</g>
<g>
</g>
<g>
</g>
<g>
</g>
<g>
</g>
</svg>
