<?xml version="1.0" encoding="iso-8859-1"?>
<!-- Generator: Adobe Illustrator 19.0.0, SVG Export Plug-In . SVG Version: 6.00 Build 0)  -->
<svg version="1.1" id="Layer_1" xmlns="http://www.w3.org/2000/svg" xmlns:xlink="http://www.w3.org/1999/xlink" x="0px" y="0px"
	 viewBox="0 0 512.002 512.002" style="enable-background:new 0 0 512.002 512.002;" xml:space="preserve">
<g>
	<g>
		<path d="M443.752,134.226C431.512,87.738,401.9,48.798,360.374,24.58C318.846,0.364,270.373-6.232,223.885,6.008
			c-46.489,12.24-85.429,41.851-109.646,83.378c-39.702,68.081-29.532,151.729,19.273,208.322c-0.245,0.057-0.493,0.092-0.738,0.156
			c-6.546,1.724-12.031,5.894-15.44,11.742l-3.268,5.603c-3.411,5.848-4.34,12.674-2.616,19.221
			c1.723,6.547,5.894,12.031,11.742,15.441l9.617,5.609l-64.644,99.652c-5.571,8.588-7.316,19.203-4.79,29.123
			c2.528,9.919,9.139,18.405,18.14,23.281c5.467,2.961,11.443,4.465,17.479,4.465c3.619,0,7.262-0.54,10.826-1.631
			c9.51-2.91,17.279-9.37,21.874-18.189l54.895-105.338l9.621,5.61c4.005,2.336,8.393,3.445,12.725,3.445
			c8.728,0,17.233-4.505,21.938-12.572l3.268-5.603c3.81-6.534,4.353-14.085,2.14-20.756c10.91,2.069,21.992,3.134,33.129,3.134
			c15.376,0,30.858-1.988,46.123-6.008c46.488-12.24,85.428-41.851,109.645-83.378C449.396,229.189,455.992,180.715,443.752,134.226
			z M116.935,484.488c-2.519,4.832-6.775,8.371-11.985,9.966c-5.211,1.594-10.719,1.043-15.51-1.552
			c-5.004-2.711-8.533-7.241-9.939-12.756c-1.405-5.515-0.473-11.182,2.624-15.956l65.076-100.317l24.994,14.576L116.935,484.488z
			 M219.762,369.34l-3.266,5.603c-2.418,4.145-7.758,5.551-11.902,3.133l-73.018-42.581c-2.008-1.171-3.44-3.053-4.031-5.301
			c-0.592-2.248-0.273-4.591,0.898-6.599l3.268-5.603c1.171-2.008,3.053-3.44,5.301-4.032c2.249-0.591,4.592-0.273,6.599,0.898
			l73.018,42.582C220.773,359.856,222.179,365.195,219.762,369.34z M410.801,262.331c-21.979,37.687-57.317,64.56-99.507,75.668
			c-42.188,11.107-86.179,5.122-123.867-16.856c-77.798-45.37-104.181-145.575-58.812-223.373
			c21.978-37.687,57.316-64.56,99.506-75.668c13.857-3.648,27.901-5.452,41.859-5.452c28.54,0,56.699,7.548,82.008,22.308
			c37.687,21.978,64.561,57.316,75.669,99.506C438.765,180.653,432.778,224.644,410.801,262.331z"/>
	</g>
</g>
<g>
	<g>
		<path d="M341.203,57.453c-32.747-19.097-70.971-24.299-107.63-14.647c-36.66,9.652-67.366,33.002-86.463,65.75
			c-19.096,32.747-24.299,70.971-14.647,107.63c9.652,36.659,33.003,67.365,65.75,86.462c21.994,12.826,46.457,19.383,71.258,19.383
			c12.126,0,24.334-1.568,36.372-4.738c36.659-9.652,67.365-33.002,86.462-65.75C431.729,183.945,408.804,96.876,341.203,57.453z
			 M267.124,305.265c-17.22-0.327-34.56-4.211-50.905-11.943v-19.449c-0.001-11.39,3.203-22.275,9.161-31.652l19.783,32.559
			c1.326,2.184,3.582,3.636,6.118,3.941c0.332,0.04,0.664,0.06,0.994,0.06c2.194,0,4.314-0.868,5.884-2.438l8.965-8.965V305.265z
			 M246.643,130.659c-5.126,3.817-15.341,10.758-28.981,16.765c3.734-16.675,14.51-30.714,29.042-38.814
			C245.442,118.196,245.952,125.823,246.643,130.659z M256.818,143.848c26.791,12.846,52.849,19.911,77.647,21.094
			c-2.347,30.521-27.914,54.643-59.026,54.643c-30.792,0-56.159-23.625-58.954-53.699
			C235.736,158.599,250.014,148.955,256.818,143.848z M264.847,102.114c3.44-0.625,6.977-0.967,10.594-0.967
			c28.494,0,52.346,20.229,57.964,47.078c-27.111-1.7-52.343-11.155-70.274-19.814C262.451,123.712,261.848,114.313,264.847,102.114
			z M272.26,239.6c-1.031,0.427-1.927,1.06-2.686,1.819l-0.014-0.014l-15.676,15.678l-17.06-28.078
			c0.791-0.681,1.599-1.341,2.424-1.981c10.764,5.867,23.095,9.205,36.192,9.205s25.428-3.337,36.191-9.204
			c0.828,0.641,1.639,1.303,2.432,1.986l-17.056,28.071l-15.677-15.678C278.949,239.025,275.37,238.312,272.26,239.6z
			 M334.66,287.154c-15.547,9.393-32.951,15.273-50.894,17.321v-37.096l8.964,8.965c1.806,1.805,4.339,2.685,6.878,2.378
			c2.536-0.305,4.791-1.758,6.118-3.941l19.775-32.547c5.955,9.38,9.159,20.261,9.159,31.639V287.154z M377.929,243.161
			c-7.235,12.406-16.288,23.105-26.625,31.961v-1.249c0-20.26-7.891-39.308-22.219-53.638c-1.082-1.082-2.207-2.122-3.354-3.139
			c15.671-13.908,25.572-34.179,25.572-56.73c0-41.83-34.033-75.863-75.863-75.863c-41.83,0-75.863,34.031-75.863,75.863
			c0,22.55,9.901,42.822,25.571,56.73c-1.142,1.012-2.261,2.047-3.336,3.122c-14.34,14.313-22.237,33.368-22.237,53.655v9.982
			c-25.219-16.987-43.204-42.235-51.016-71.907c-8.52-32.361-3.929-66.101,12.929-95.008C178.344,88.033,205.45,67.42,237.811,58.9
			c10.628-2.798,21.401-4.182,32.106-4.182c21.891,0,43.489,5.79,62.901,17.111C392.491,106.63,412.728,183.488,377.929,243.161z"/>
	</g>
</g>
<g>
	<g>
		<circle cx="320.088" cy="279.268" r="8.321"/>
	</g>
</g>
<g>
</g>
<g>
</g>
<g>
</g>
<g>
</g>
<g>
</g>
<g>
</g>
<g>
</g>
<g>
</g>
<g>
</g>
<g>
</g>
<g>
</g>
<g>
</g>
<g>
</g>
<g>
</g>
<g>
</g>
</svg>
