<?xml version="1.0" encoding="iso-8859-1"?>
<!-- Generator: Adobe Illustrator 19.0.0, SVG Export Plug-In . SVG Version: 6.00 Build 0)  -->
<svg version="1.1" id="Layer_1" xmlns="http://www.w3.org/2000/svg" xmlns:xlink="http://www.w3.org/1999/xlink" x="0px" y="0px"
	 viewBox="0 0 512.001 512.001" style="enable-background:new 0 0 512.001 512.001;" xml:space="preserve">
<g>
	<g>
		<path d="M135.42,202.694c-2.3,0-4.517,0.346-6.62,0.964v-61.052c0-12.376-10.069-22.444-22.444-22.444
			c-2.047,0-4.022,0.299-5.907,0.815c-1.901-10.462-11.061-18.428-22.064-18.428c-12.375,0-22.444,10.068-22.444,22.444v0.082
			c-1.772-0.451-3.617-0.717-5.527-0.717c-12.375,0-22.444,10.068-22.444,22.444v6.595c-1.772-0.451-3.617-0.717-5.527-0.717
			C10.069,152.681,0,162.749,0,175.125v95.274c0,14.548,3.386,29.143,9.778,42.181l0.125,0.254
			c6.288,12.614,9.612,26.502,9.612,40.239l1.007,109.458c0.043,4.645,3.821,8.38,8.456,8.38c0.026,0,0.053,0,0.079,0
			c4.671-0.043,8.423-3.865,8.38-8.536l-1.006-109.38c0-16.265-3.938-32.763-11.386-47.704l-0.065-0.132
			c-5.276-10.759-8.064-22.779-8.064-34.76v-95.274c0-3.047,2.48-5.527,5.527-5.527s5.527,2.48,5.527,5.527v61.211
			c0,4.671,3.787,8.458,8.458,8.458c4.671,0,8.458-3.787,8.458-8.458v-89.534c0-3.047,2.48-5.527,5.527-5.527
			s5.527,2.479,5.527,5.527v83.679c0,4.671,3.787,8.458,8.458,8.458c4.671,0,8.458-3.787,8.458-8.458V124.994
			c0-3.047,2.48-5.527,5.527-5.527s5.527,2.479,5.527,5.527v110.041c0,4.671,3.787,8.458,8.458,8.458
			c4.671,0,8.458-3.787,8.458-8.458v-92.429c0-3.047,2.48-5.527,5.527-5.527s5.527,2.48,5.527,5.527v122.395
			c0,4.671,3.787,8.458,8.458,8.458s8.458-3.787,8.458-8.458v-7.238V226.23c0-3.651,2.969-6.62,6.62-6.62
			c3.651,0,6.62,2.969,6.62,6.62v48.835c0,14.253-7.047,27.536-18.935,35.588c-13.648,9.021-21.795,23.999-21.795,40.142
			l1.007,111.734c0.042,4.645,3.821,8.382,8.456,8.382c0.026,0,0.052,0,0.078,0c4.671-0.042,8.424-3.863,8.382-8.534l-1.006-111.658
			c0-10.371,5.311-20.074,14.202-25.95l0.248-0.166c16.455-11.148,26.28-29.666,26.28-49.537V226.23
			C158.956,213.252,148.398,202.694,135.42,202.694z"/>
	</g>
</g>
<g>
	<g>
		<path d="M311.941,141.233c-2.299,0-4.517,0.346-6.619,0.964V81.145c0-12.375-10.069-22.444-22.444-22.444
			c-2.047,0-4.022,0.299-5.907,0.815c-1.901-10.462-11.061-18.428-22.064-18.428c-12.375,0-22.444,10.068-22.444,22.444v0.082
			c-1.772-0.451-3.617-0.717-5.527-0.717c-12.376,0-22.444,10.068-22.444,22.444v6.596c-1.772-0.451-3.617-0.717-5.527-0.717
			c-12.375,0-22.444,10.068-22.444,22.444v95.274c0,14.549,3.386,29.145,9.785,42.194l0.118,0.239
			c6.288,12.615,9.612,26.503,9.612,40.212l1.007,170.919c0.027,4.654,3.809,8.409,8.457,8.409c0.017,0,0.034,0,0.051,0
			c4.671-0.027,8.436-3.837,8.409-8.508l-1.007-170.87c0-16.264-3.938-32.761-11.394-47.717l-0.059-0.118
			c-5.275-10.758-8.062-22.778-8.062-34.759v-95.274c0-3.047,2.48-5.527,5.527-5.527c3.047,0,5.527,2.479,5.527,5.527v61.211
			c0,4.671,3.787,8.458,8.458,8.458c4.671,0,8.458-3.787,8.458-8.458V85.343c0-3.047,2.48-5.527,5.527-5.527
			s5.527,2.479,5.527,5.527v83.679c0,4.671,3.787,8.458,8.458,8.458s8.458-3.787,8.458-8.458V63.532c0-3.047,2.48-5.527,5.527-5.527
			s5.527,2.479,5.527,5.527v17.612v67.71v24.719c0,4.671,3.787,8.458,8.458,8.458c4.671,0,8.458-3.787,8.458-8.458v-24.719V81.145
			c0-3.047,2.48-5.527,5.527-5.527c3.047,0,5.527,2.479,5.527,5.527v83.623v31.534v7.237c0,4.671,3.787,8.458,8.458,8.458
			c4.671,0,8.458-3.787,8.458-8.458v-7.237v-31.534c0-3.649,2.969-6.619,6.619-6.619s6.62,2.969,6.62,6.619v48.835
			c0,14.253-7.047,27.536-18.831,35.519l-0.103,0.069c-13.648,9.021-21.795,23.999-21.795,40.116l1.007,173.195
			c0.027,4.654,3.808,8.41,8.457,8.409c0.017,0,0.034,0,0.05,0c4.671-0.027,8.436-3.836,8.41-8.507l-1.007-173.147
			c0-10.371,5.311-20.073,14.227-25.967l0.224-0.15c16.455-11.148,26.279-29.666,26.279-49.537v-48.835
			C335.478,151.791,324.92,141.233,311.941,141.233z"/>
	</g>
</g>
<g>
	<g>
		<path d="M488.463,181.83c-2.299,0-4.517,0.346-6.62,0.964v-61.052c0-12.376-10.069-22.444-22.444-22.444
			c-2.047,0-4.022,0.299-5.907,0.815c-1.901-10.462-11.061-18.428-22.064-18.428c-12.376,0-22.444,10.068-22.444,22.444v0.082
			c-1.772-0.451-3.617-0.717-5.527-0.717c-12.375,0-22.444,10.068-22.444,22.444v6.595c-1.772-0.451-3.617-0.717-5.527-0.717
			c-12.376,0-22.444,10.068-22.444,22.444v95.274c0,14.548,3.386,29.143,9.778,42.181l0.125,0.254
			c6.288,12.614,9.612,26.501,9.612,40.226l1.007,130.322c0.036,4.649,3.816,8.393,8.457,8.393c0.023,0,0.045,0,0.068,0
			c4.671-0.036,8.429-3.852,8.393-8.524l-1.007-130.256c0-16.265-3.938-32.763-11.386-47.704l-0.065-0.132
			c-5.276-10.759-8.064-22.779-8.064-34.76v-95.274c0-3.047,2.48-5.527,5.527-5.527c3.047,0,5.527,2.48,5.527,5.527v61.211
			c0,4.671,3.787,8.458,8.458,8.458c4.671,0,8.458-3.787,8.458-8.458v-89.534c0-3.047,2.48-5.527,5.527-5.527
			s5.527,2.479,5.527,5.527v83.679c0,4.671,3.787,8.458,8.458,8.458s8.458-3.787,8.458-8.458V104.13c0-3.047,2.48-5.527,5.527-5.527
			s5.527,2.479,5.527,5.527v17.612v67.71v24.719c0,4.671,3.787,8.458,8.458,8.458c4.671,0,8.458-3.787,8.458-8.458v-24.719v-67.71
			c0-3.047,2.48-5.527,5.527-5.527c3.047,0,5.527,2.48,5.527,5.527v83.623v31.534v7.238c0,4.671,3.787,8.458,8.458,8.458
			c4.671,0,8.458-3.787,8.458-8.458v-7.238v-31.534c0-3.651,2.969-6.62,6.62-6.62c3.651,0,6.62,2.969,6.62,6.62v48.835
			c0,14.253-7.047,27.536-18.935,35.588c-13.648,9.021-21.795,23.999-21.795,40.131l1.007,132.598
			c0.036,4.65,3.815,8.394,8.457,8.394c0.021,0,0.044,0,0.065,0c4.671-0.035,8.429-3.851,8.394-8.523l-1.007-132.534
			c0-10.371,5.311-20.074,14.202-25.95l0.248-0.166c16.455-11.148,26.28-29.666,26.28-49.537v-48.835
			C512,192.389,501.441,181.83,488.463,181.83z"/>
	</g>
</g>
<g>
</g>
<g>
</g>
<g>
</g>
<g>
</g>
<g>
</g>
<g>
</g>
<g>
</g>
<g>
</g>
<g>
</g>
<g>
</g>
<g>
</g>
<g>
</g>
<g>
</g>
<g>
</g>
<g>
</g>
</svg>
