<?xml version="1.0" encoding="iso-8859-1"?>
<!-- Generator: Adobe Illustrator 19.0.0, SVG Export Plug-In . SVG Version: 6.00 Build 0)  -->
<svg version="1.1" id="Layer_1" xmlns="http://www.w3.org/2000/svg" xmlns:xlink="http://www.w3.org/1999/xlink" x="0px" y="0px"
	 viewBox="0 0 512 512" style="enable-background:new 0 0 512 512;" xml:space="preserve">
<g>
	<g>
		<path d="M488.648,120.641c-0.012-0.104-0.026-0.207-0.041-0.31c-0.875-6.559-1.379-10.014-1.379-10.014
			c-0.486-3.33-2.743-6.134-5.891-7.322L334.34,47.569l-16.911-36.074c-1.297-2.764-3.871-4.712-6.884-5.204
			c-0.498-0.081-0.997-0.107-1.494-0.107V6.169H202.949v0.014c-0.497,0-0.996,0.026-1.494,0.107
			c-3.013,0.494-5.588,2.44-6.884,5.204L177.66,47.569L30.663,102.995c-3.15,1.187-5.406,3.991-5.891,7.322
			c0,0-0.505,3.454-1.379,10.015c-0.016,0.102-0.028,0.205-0.041,0.307C17.845,162.24,0,311.502,0,496.578
			c0,5.11,4.142,9.253,9.253,9.253h493.494c5.111,0,9.253-4.143,9.253-9.253C512,311.514,494.158,162.258,488.648,120.641z
			 M328.017,107.81c3.082-17.309,5.416-31.254,6.885-40.249l46.939,17.698v12.753l-36.005,10.958
			c-2.963,0.902-5.278,3.226-6.169,6.193c-0.891,2.967-0.236,6.182,1.742,8.566l26.82,32.332
			c-2.697,8.518-5.871,17.318-9.424,26.254c-16.597,4.172-28.924,19.218-28.924,37.092c0,5.922,1.353,11.534,3.767,16.544
			c-17.519,32.659-36.874,61.778-52.658,83.688c20.408-70.813,37.153-156.508,46.789-210.494
			C327.887,108.706,327.974,108.26,328.017,107.81z M387.867,219.407c0,10.884-8.856,19.74-19.74,19.74
			c-10.884,0-19.74-8.856-19.74-19.74s8.856-19.74,19.74-19.74C379.011,199.668,387.867,208.523,387.867,219.407z M291.211,200.149
			l-15.633-73.743l14.411-29.75c6.53,3.89,13.063,8.417,18.803,13.543C304.269,135.369,298.297,166.822,291.211,200.149z
			 M317.977,56.266c-0.801,5.061-2.69,16.785-5.511,33.111c-13.857-10.256-29.342-17.674-40.111-22.159l34.052-35.635
			L317.977,56.266z M273.612,88.02l-13.298,27.454h-8.624l-13.295-27.442c7.654-3.582,14.114-6.048,17.61-7.305
			C259.504,81.98,265.959,84.441,273.612,88.02z M287.411,24.675L256,57.546l-31.41-32.872H287.411z M205.593,31.582l34.052,35.635
			c-10.769,4.486-26.253,11.903-40.111,22.159c-2.822-16.326-4.709-28.05-5.511-33.111L205.593,31.582z M236.421,126.406
			l-15.631,73.743c-7.087-33.327-13.057-64.778-17.583-89.949c5.734-5.116,12.271-9.642,18.808-13.533L236.421,126.406z
			 M130.159,85.258l46.939-17.698c1.468,8.994,3.802,22.938,6.884,40.243c0.043,0.452,0.131,0.899,0.239,1.342
			c9.647,54.04,26.414,139.854,46.851,210.708c-27.951-38.697-67.163-100.089-87.303-163.792l26.821-32.334
			c1.978-2.384,2.632-5.599,1.742-8.566c-0.891-2.967-3.205-5.291-6.169-6.193l-36.005-10.958V85.258z M86.896,487.325H18.521
			c0.464-144.087,11.634-265.231,18.812-328.505c27.812,78.558,53.59,200.484,56.374,213.828L86.896,487.325z M106.064,487.325
			h-0.632l1.773-29.832h42.11C142.519,475.398,125.319,487.325,106.064,487.325z M246.747,487.325h-95.355
			c7.04-6.89,12.562-15.434,15.913-25.169l3.763-10.894c0.977-2.828,0.527-5.954-1.209-8.391c-1.737-2.437-4.545-3.883-7.536-3.883
			h-54.018l3.948-66.467c0.048-0.808-0.01-1.619-0.173-2.411c-0.09-0.439-9.148-44.416-22.332-97.09
			C72.426,203.806,56.39,152.45,42.069,120.303c0.093-0.691,0.18-1.334,0.262-1.93l69.322-26.138v12.632
			c0,4.073,2.662,7.666,6.559,8.852l29.253,8.903l-21.134,25.477c-1.979,2.386-2.632,5.604-1.74,8.572
			c30.299,100.783,107.951,196.741,122.156,213.741V487.325z M230.483,243.659l22.561-106.433l0.076,0.025
			c1.87,0.613,3.889,0.613,5.759,0l0.077-0.025l22.561,106.433c-7.698,32.909-16.303,65.798-25.517,94.709
			C246.785,309.455,238.181,276.568,230.483,243.659z M265.253,487.324V370.402c9.618-11.549,48.055-59.069,81.297-119.439
			c6.146,4.216,13.577,6.689,21.577,6.689c21.089,0,38.246-17.158,38.246-38.246c0-17.473-11.783-32.236-27.818-36.789
			c3.352-8.84,6.324-17.53,8.854-25.948c0.892-2.968,0.238-6.186-1.74-8.571l-21.134-25.477l29.253-8.903
			c3.896-1.186,6.559-4.779,6.559-8.852V92.235l69.322,26.138c0.081,0.596,0.169,1.24,0.262,1.93
			c-34.314,77.033-68.556,242.718-70.012,249.807c-0.163,0.792-0.221,1.603-0.173,2.411l3.948,66.467h-55.39
			c-2.992,0-5.799,1.447-7.536,3.883c-1.736,2.437-2.186,5.563-1.209,8.391l3.759,10.884c3.352,9.74,8.877,18.288,15.918,25.179
			H265.253z M404.564,487.325c-19.253,0-36.448-11.924-43.25-29.832h43.481l1.773,29.832H404.564z M425.104,487.327v-0.001
			l-6.811-114.676c2.786-13.344,28.562-135.272,56.374-213.828c7.179,63.277,18.348,184.417,18.812,328.505H425.104z"/>
	</g>
</g>
<g>
	<g>
		<circle cx="285.61" cy="394.178" r="9.253"/>
	</g>
</g>
<g>
	<g>
		<circle cx="285.61" cy="449.696" r="9.253"/>
	</g>
</g>
<g>
</g>
<g>
</g>
<g>
</g>
<g>
</g>
<g>
</g>
<g>
</g>
<g>
</g>
<g>
</g>
<g>
</g>
<g>
</g>
<g>
</g>
<g>
</g>
<g>
</g>
<g>
</g>
<g>
</g>
</svg>
