<?xml version="1.0" encoding="iso-8859-1"?>
<!-- Generator: Adobe Illustrator 19.0.0, SVG Export Plug-In . SVG Version: 6.00 Build 0)  -->
<svg version="1.1" id="Layer_1" xmlns="http://www.w3.org/2000/svg" xmlns:xlink="http://www.w3.org/1999/xlink" x="0px" y="0px"
	 viewBox="0 0 512.001 512.001" style="enable-background:new 0 0 512.001 512.001;" xml:space="preserve">
<g>
	<g>
		<path d="M478.471,43.824H33.53C15.042,43.824,0,58.866,0,77.354v308.099c0,18.489,15.042,33.53,33.53,33.53h179.687l-7.892,31.168
			h-31.365c-4.978,0-9.013,4.036-9.013,9.013c0,4.978,4.036,9.013,9.013,9.013h38.379h123.323h38.381
			c4.978,0,9.013-4.036,9.013-9.013c0-4.978-4.036-9.013-9.013-9.013h-31.365l-7.892-31.168h143.684
			c18.489,0,33.53-15.041,33.53-33.53V77.354C512,58.866,496.959,43.824,478.471,43.824z M223.92,450.151l7.892-31.168h84.379
			l7.893,31.168H223.92z M493.974,385.453c0,8.549-6.955,15.504-15.504,15.504H33.53c-8.549,0-15.504-6.955-15.504-15.504V77.354
			c0-8.549,6.956-15.504,15.504-15.504H478.47c8.549,0,15.504,6.956,15.504,15.504V385.453z"/>
	</g>
</g>
<g>
	<g>
		<path d="M472.943,370.913h-62.246v-38.284c0-23.815-10.166-46.035-27.679-61.51c16.964-15.063,27.682-37.014,27.682-61.433
			c0-45.307-36.86-82.169-82.169-82.169c-45.308,0-82.169,36.86-82.169,82.169c0,24.425,10.723,46.381,27.697,61.445
			c-1.239,1.097-2.454,2.222-3.622,3.389c-15.523,15.508-24.071,36.144-24.071,58.107v38.284h-13.094v-83.02l13.153-11.534
			c3.742-3.282,4.116-8.976,0.834-12.718c-3.283-3.743-8.978-4.116-12.719-0.834l-27.497,24.113
			c-3.742,3.282-4.116,8.976-0.834,12.718c1.781,2.032,4.275,3.07,6.78,3.07c0.758,0,1.517-0.099,2.257-0.29v68.494H39.057
			c-4.978,0-9.013,4.036-9.013,9.013c0,4.978,4.035,9.013,9.013,9.013h433.886c4.978,0,9.013-4.036,9.013-9.013
			C481.956,374.947,477.922,370.913,472.943,370.913z M317.055,146.594c3.727-0.677,7.557-1.048,11.476-1.048
			c30.862-0.001,56.698,21.91,62.782,50.992c-29.37-1.842-56.705-12.087-76.128-21.467
			C314.45,170.017,313.791,159.853,317.055,146.594z M297.407,153.629c-1.368,10.39-0.814,18.656-0.065,23.893
			c-5.529,4.129-16.555,11.631-31.392,18.154C269.991,177.611,281.665,162.404,297.407,153.629z M264.677,215.666
			c20.849-7.893,36.315-18.339,43.684-23.869c29.018,13.914,57.242,21.566,84.102,22.848c-2.542,33.058-30.234,59.184-63.932,59.184
			C295.18,273.829,267.704,248.24,264.677,215.666z M319.517,370.913h-55.126v-38.284h0.001c0-12.914,3.788-25.238,10.834-35.708
			l20.28,37.497c1.286,2.377,3.569,4.051,6.223,4.562c0.567,0.109,1.138,0.163,1.705,0.163c2.089,0,4.133-0.727,5.766-2.086
			l10.317-8.588V370.913z M324.706,301.079c-0.708,0.332-1.348,0.76-1.931,1.245l-0.01-0.012l-16.638,13.849l-18.023-33.325
			c0.401-0.327,0.818-0.635,1.228-0.952c11.657,6.355,25.015,9.97,39.2,9.97c14.184,0,27.539-3.614,39.197-9.967
			c0.412,0.317,0.821,0.638,1.223,0.965l-18.016,33.31l-16.638-13.849C331.61,300.076,327.872,299.596,324.706,301.079z
			 M392.67,370.912h-55.126v-42.443l10.317,8.588c2.078,1.729,4.823,2.436,7.473,1.923c2.654-0.511,4.937-2.186,6.223-4.562
			l20.268-37.476c6.965,10.388,10.846,22.727,10.846,35.685V370.912z"/>
	</g>
</g>
<g>
	<g>
		<path d="M472.943,73.868H39.057c-4.978,0-9.013,4.035-9.013,9.013c0,4.978,4.035,9.013,9.013,9.013h433.886
			c4.978,0,9.013-4.036,9.013-9.013C481.956,77.903,477.922,73.868,472.943,73.868z"/>
	</g>
</g>
<g>
	<g>
		<path d="M208.21,114.878H71.215c-4.978,0-9.013,4.036-9.013,9.013v93.732c0,4.978,4.036,9.013,9.013,9.013H208.21
			c4.978,0,9.013-4.036,9.013-9.013v-93.732C217.223,118.914,213.187,114.878,208.21,114.878z M199.196,208.61H80.228v-75.706
			h118.968V208.61z"/>
	</g>
</g>
<g>
	<g>
		<circle cx="376.872" cy="338.464" r="9.013"/>
	</g>
</g>
<g>
</g>
<g>
</g>
<g>
</g>
<g>
</g>
<g>
</g>
<g>
</g>
<g>
</g>
<g>
</g>
<g>
</g>
<g>
</g>
<g>
</g>
<g>
</g>
<g>
</g>
<g>
</g>
<g>
</g>
</svg>
