<?xml version="1.0" encoding="iso-8859-1"?>
<!-- Generator: Adobe Illustrator 19.0.0, SVG Export Plug-In . SVG Version: 6.00 Build 0)  -->
<svg version="1.1" id="Layer_1" xmlns="http://www.w3.org/2000/svg" xmlns:xlink="http://www.w3.org/1999/xlink" x="0px" y="0px"
	 viewBox="0 0 511.999 511.999" style="enable-background:new 0 0 511.999 511.999;" xml:space="preserve">
<g>
	<g>
		<path d="M341.543,3.431C339.912,1.27,337.363,0,334.658,0H194.999c-2.707,0-5.254,1.27-6.885,3.431
			c-1.629,2.16-2.15,4.96-1.406,7.562l27.027,94.558l-44.862,233.291c-0.616,3.21,0.634,6.492,3.23,8.477l30.364,23.228
			l-2.432,56.151c-0.085,1.966,0.504,3.901,1.671,5.485l56.178,76.306c1.626,2.208,4.203,3.51,6.945,3.51
			c2.741,0,5.319-1.303,6.944-3.51l56.178-76.306c1.167-1.584,1.756-3.521,1.671-5.485l-13.88-320.513l27.208-95.19
			C343.693,8.391,343.172,5.591,341.543,3.431z M203.377,349.53l-16.56-12.668l22.082-114.829L203.377,349.53z M264.828,488.834
			l-47.432-64.425l13.453-310.624h67.956l13.453,310.624L264.828,488.834z M300.562,96.538h-71.466l-22.664-79.292h116.792
			L300.562,96.538z"/>
	</g>
</g>
<g>
</g>
<g>
</g>
<g>
</g>
<g>
</g>
<g>
</g>
<g>
</g>
<g>
</g>
<g>
</g>
<g>
</g>
<g>
</g>
<g>
</g>
<g>
</g>
<g>
</g>
<g>
</g>
<g>
</g>
</svg>
