<?xml version="1.0" encoding="iso-8859-1"?>
<!-- Generator: Adobe Illustrator 19.0.0, SVG Export Plug-In . SVG Version: 6.00 Build 0)  -->
<svg version="1.1" id="Layer_1" xmlns="http://www.w3.org/2000/svg" xmlns:xlink="http://www.w3.org/1999/xlink" x="0px" y="0px"
	 viewBox="0 0 512 512" style="enable-background:new 0 0 512 512;" xml:space="preserve">
<g>
	<g>
		<path d="M502.375,423.747h-83.56V64.153c0-16.43-13.367-29.796-29.796-29.796H122.981c-16.43,0-29.796,13.367-29.796,29.796
			v359.594H9.625c-5.315,0-9.625,4.309-9.625,9.625c0,24.41,19.86,44.271,44.271,44.271h423.457c24.41,0,44.271-19.86,44.271-44.271
			C512,428.056,507.692,423.747,502.375,423.747z M112.435,64.153c0-5.816,4.731-10.547,10.546-10.547h266.038
			c5.816,0,10.547,4.731,10.547,10.547v286.449h-31.758c-4.417-20.052-22.319-35.105-43.677-35.105
			c-21.359,0-39.26,15.053-43.677,35.105H112.435V64.153z M349.614,360.229c0,14.052-11.431,25.483-25.483,25.483
			s-25.483-11.433-25.483-25.483s11.431-25.483,25.483-25.483C338.182,334.746,349.614,346.177,349.614,360.229z M112.435,369.851
			h168.016c4.414,20.055,22.317,35.112,43.68,35.112s39.264-15.055,43.68-35.112h31.757v53.897H112.435V369.851z M467.729,458.394
			H44.271c-10.388,0-19.32-6.364-23.098-15.398h469.652C487.048,452.03,478.118,458.394,467.729,458.394z"/>
	</g>
</g>
<g>
</g>
<g>
</g>
<g>
</g>
<g>
</g>
<g>
</g>
<g>
</g>
<g>
</g>
<g>
</g>
<g>
</g>
<g>
</g>
<g>
</g>
<g>
</g>
<g>
</g>
<g>
</g>
<g>
</g>
</svg>
