<?xml version="1.0" encoding="iso-8859-1"?>
<!-- Generator: Adobe Illustrator 19.0.0, SVG Export Plug-In . SVG Version: 6.00 Build 0)  -->
<svg version="1.1" id="Layer_1" xmlns="http://www.w3.org/2000/svg" xmlns:xlink="http://www.w3.org/1999/xlink" x="0px" y="0px"
	 viewBox="0 0 512.003 512.003" style="enable-background:new 0 0 512.003 512.003;" xml:space="preserve">
<g>
	<g>
		<path d="M485.645,198.911l-138.851-29.659l3.741-17.516c0.961-4.499-1.908-8.924-6.406-9.884
			c-4.499-0.961-8.923,1.906-9.884,6.405l-3.741,17.516l-73.598-15.72L225.816,6.567c-0.975-4.496-5.411-7.349-9.903-6.376
			L26.332,41.256c-2.159,0.467-4.044,1.773-5.239,3.631c-1.196,1.858-1.605,4.113-1.137,6.272l52.481,242.239
			c0.846,3.901,4.296,6.567,8.132,6.567c0.583,0,1.177-0.062,1.771-0.19l69.019-14.949l-2.298,10.758
			c-0.461,2.16-0.046,4.415,1.156,6.27s3.089,3.154,5.25,3.616l19.729,4.214l42.404,195.75c0.845,3.901,4.295,6.567,8.132,6.567
			c0.583,0,1.177-0.062,1.771-0.19c4.495-0.974,7.35-5.408,6.376-9.903l-40.812-188.407l101.262,21.63L261.375,489.42
			c-0.961,4.499,1.908,8.924,6.406,9.884c0.586,0.125,1.172,0.185,1.748,0.185c3.844,0,7.3-2.678,8.136-6.591l32.956-154.287
			l138.851,29.658c0.576,0.123,1.159,0.184,1.739,0.184c1.596,0,3.169-0.459,4.529-1.339c1.854-1.202,3.155-3.089,3.617-5.25
			l32.694-153.066C493.011,204.298,490.142,199.872,485.645,198.911z M155.18,266.956l-68.227,14.777L37.999,55.772L211.3,18.233
			l27.734,128.004l-40.013-8.546c4.226-10.863,5.435-23.032,2.787-35.253c-3.481-16.069-13.011-29.821-26.835-38.721
			c-13.824-8.902-30.284-11.885-46.356-8.405c-16.07,3.481-29.821,13.011-38.721,26.835c-8.902,13.824-11.887,30.287-8.405,46.356
			c3.48,16.069,13.01,29.821,26.835,38.722c0.489,0.315,0.984,0.616,1.48,0.916c-0.325,0.473-0.66,0.937-0.974,1.421
			c-8.897,13.814-11.88,30.278-8.4,46.36l7.285,33.635c0.468,2.159,1.775,4.044,3.631,5.24c1.356,0.872,2.923,1.326,4.51,1.326
			c0.589,0,1.18-0.062,1.763-0.189l41.848-9.068L155.18,266.956z M151.155,159.348c-11.72,2.54-23.729,0.362-33.812-6.131
			c-8.522-5.487-14.795-13.508-18.069-22.935c12.467-8.276,21.319-17.275,25.906-22.461c21.901,5.1,42.41,6.229,61.153,3.376
			C188.482,133.522,173.602,154.486,151.155,159.348z M157.97,230.145l-35.734,7.746l-5.522-25.494
			c-2.54-11.733-0.364-23.743,6.111-33.796c0.835-1.289,1.732-2.526,2.675-3.711c5.216,1.424,10.596,2.157,16.029,2.157
			c1.627,0,3.259-0.087,4.893-0.218L157.97,230.145z M96.916,111.483c0.629-7.159,2.985-14.106,6.986-20.321
			c1.641-2.55,3.511-4.897,5.576-7.026c0.708,5.445,1.906,9.787,2.996,12.894C109.43,100.44,104.129,105.886,96.916,111.483z
			 M125.527,73.562c2.134-0.816,4.343-1.479,6.618-1.972c3.191-0.692,6.374-1.023,9.513-1.023c16.843,0,32.343,9.558,39.967,24.462
			c-19.664,2.552-39.035-0.222-53.465-3.626C126.988,88.015,125.438,81.899,125.527,73.562z M176.733,166.037l-7.749,36.279
			l-6.285-29.017C167.754,171.463,172.458,169.012,176.733,166.037z M444.806,350.237l-277.714-59.318l29.216-136.775
			l277.713,59.318L444.806,350.237z"/>
	</g>
</g>
<g>
	<g>
		<path d="M323.361,215.628c-4.033-6.181-10.231-10.417-17.45-11.933c-14.899-3.132-29.576,6.447-32.707,21.353l-6.903,32.863
			c-3.129,14.904,6.45,29.576,21.353,32.707c1.909,0.401,3.828,0.6,5.733,0.6c5.303,0,10.498-1.535,15.043-4.502
			c6.178-4.033,10.415-10.231,11.931-17.45l6.903-32.863C328.78,229.183,327.394,221.805,323.361,215.628z M310.962,232.977
			l-6.903,32.863c-0.602,2.866-2.284,5.325-4.735,6.926c-2.453,1.6-5.384,2.151-8.246,1.549c-5.915-1.243-9.718-7.066-8.476-12.982
			l6.903-32.863c1.084-5.159,5.651-8.711,10.725-8.711c0.744,0,1.5,0.077,2.255,0.235h0.001c2.865,0.602,5.325,2.283,6.925,4.735
			C311.014,227.184,311.564,230.112,310.962,232.977z"/>
	</g>
</g>
<g>
	<g>
		<path d="M267.527,195.964c-4.044-2.188-9.099-0.681-11.287,3.364l-22.472,41.553l-3.857-47.082
			c-0.375-4.585-4.425-8.001-8.98-7.621c-4.584,0.375-7.997,4.396-7.62,8.98l6.144,75.027c0.301,3.675,2.982,6.713,6.589,7.471
			c0.573,0.12,1.146,0.179,1.715,0.179c3.012,0,5.849-1.639,7.324-4.367l35.81-66.215
			C273.079,203.206,271.573,198.153,267.527,195.964z"/>
	</g>
</g>
<g>
	<g>
		<path d="M436.032,231.203l-31.815-6.682c-4.505-0.947-8.917,1.938-9.863,6.439l-14.831,70.622c-0.946,4.5,1.936,8.916,6.437,9.861
			l31.814,6.682c0.579,0.121,1.154,0.18,1.721,0.18c3.857,0,7.318-2.694,8.142-6.618c0.946-4.502-1.937-8.917-6.439-9.862
			l-23.664-4.971l4.02-19.139l10.728,2.253c0.579,0.121,1.154,0.18,1.721,0.18c3.857,0,7.318-2.694,8.142-6.618
			c0.946-4.502-1.937-8.917-6.439-9.862l-10.729-2.253l3.966-18.88l23.664,4.971c4.51,0.948,8.917-1.938,9.863-6.439
			C443.417,236.564,440.533,232.148,436.032,231.203z"/>
	</g>
</g>
<g>
	<g>
		<path d="M380.195,219.32l-38.458-8.076c-4.509-0.947-8.917,1.937-9.863,6.439c-0.946,4.502,1.937,8.917,6.439,9.862l11.078,2.326
			l-13.12,62.471c-0.946,4.502,1.938,8.917,6.439,9.862c0.579,0.121,1.154,0.18,1.721,0.18c3.857,0,7.318-2.694,8.142-6.618
			l13.12-62.471l11.078,2.326c0.579,0.121,1.154,0.18,1.721,0.18c3.857,0,7.318-2.694,8.142-6.618
			C387.58,224.68,384.697,220.265,380.195,219.32z"/>
	</g>
</g>
<g>
</g>
<g>
</g>
<g>
</g>
<g>
</g>
<g>
</g>
<g>
</g>
<g>
</g>
<g>
</g>
<g>
</g>
<g>
</g>
<g>
</g>
<g>
</g>
<g>
</g>
<g>
</g>
<g>
</g>
</svg>
