<?xml version="1.0" encoding="iso-8859-1"?>
<!-- Generator: Adobe Illustrator 19.0.0, SVG Export Plug-In . SVG Version: 6.00 Build 0)  -->
<svg version="1.1" id="Layer_1" xmlns="http://www.w3.org/2000/svg" xmlns:xlink="http://www.w3.org/1999/xlink" x="0px" y="0px"
	 viewBox="0 0 512.002 512.002" style="enable-background:new 0 0 512.002 512.002;" xml:space="preserve">
<g>
	<g>
		<path d="M487.355,201.748L434.349,6.439c-0.606-2.233-2.074-4.134-4.081-5.284c-2.009-1.151-4.388-1.456-6.623-0.85
			L259.237,44.924l-4.649-17.129c-1.262-4.65-6.051-7.394-10.704-6.133l-47.212,12.814c-2.232,0.606-4.134,2.074-5.283,4.081
			c-1.15,2.007-1.456,4.389-0.85,6.623l4.649,17.129L30.78,106.927c-4.649,1.262-7.395,6.054-6.133,10.704l53.006,195.311
			c0.606,2.233,2.074,4.134,4.081,5.284c1.333,0.763,2.83,1.155,4.337,1.155c0.765,0,1.533-0.101,2.285-0.305l164.408-44.62
			l62.721,231.106c1.054,3.885,4.573,6.441,8.413,6.441c0.756,0,1.526-0.099,2.291-0.307l47.212-12.812
			c2.232-0.606,4.134-2.074,5.283-4.081c1.15-2.007,1.456-4.389,0.85-6.623l-62.721-231.105l164.409-44.62
			C485.871,211.19,488.617,206.398,487.355,201.748z M240.035,40.783l2.363,8.71l-30.374,8.244l-2.363-8.71L240.035,40.783z
			 M360.413,484.328l-30.375,8.243l-60.437-222.686l30.374-8.244L360.413,484.328z M92.205,299.953L43.768,121.479L419.798,19.426
			l48.438,178.473L92.205,299.953z"/>
	</g>
</g>
<g>
	<g>
		<path d="M267.844,179.216l-11.888-43.805c-5.027-18.517-24.182-29.493-42.697-24.468c-8.97,2.434-16.454,8.216-21.076,16.281
			s-5.826,17.446-3.392,26.416l11.889,43.803c2.434,8.97,8.215,16.455,16.28,21.077c5.34,3.06,11.255,4.621,17.246,4.621
			c3.059,0,6.139-0.407,9.171-1.229c8.97-2.434,16.454-8.216,21.075-16.281C269.075,197.566,270.279,188.186,267.844,179.216z
			 M249.316,196.955c-2.304,4.021-6.036,6.904-10.51,8.117c-4.474,1.214-9.15,0.614-13.171-1.691
			c-4.022-2.304-6.905-6.036-8.117-10.51l-11.889-43.803c-1.214-4.472-0.613-9.15,1.69-13.171c2.304-4.021,6.036-6.904,10.511-8.117
			c1.516-0.412,3.039-0.607,4.539-0.607c7.638,0,14.655,5.091,16.748,12.808l11.888,43.804
			C252.221,188.257,251.62,192.935,249.316,196.955z"/>
	</g>
</g>
<g>
	<g>
		<path d="M406.924,168.482c-1.26-4.648-6.048-7.391-10.702-6.132l-33.986,9.224l-8.204-30.227l16.745-4.545
			c4.649-1.262,7.395-6.054,6.133-10.704c-1.262-4.65-6.052-7.394-10.704-6.133l-16.744,4.544l-8.204-30.228l33.987-9.223
			c4.649-1.262,7.395-6.054,6.133-10.704c-1.262-4.65-6.052-7.396-10.704-6.134L328.27,79.729c-2.232,0.606-4.134,2.074-5.283,4.081
			c-1.15,2.007-1.456,4.389-0.85,6.621l12.773,47.063c0,0.001,0,0.001,0,0.001c0,0.001,0,0.001,0,0.001l12.773,47.064
			c0.606,2.233,2.074,4.134,4.081,5.284c1.333,0.763,2.83,1.155,4.337,1.155c0.765,0,1.533-0.101,2.285-0.305l42.405-11.509
			C405.44,177.924,408.186,173.132,406.924,168.482z"/>
	</g>
</g>
<g>
	<g>
		<path d="M169.619,123.162c-0.071-0.001-0.141-0.002-0.212-0.002c-4.721,0-8.603,3.771-8.716,8.516l-1.717,72.358l-38.063-61.563
			c-2.532-4.098-7.91-5.366-12.006-2.832c-4.096,2.533-5.365,7.909-2.832,12.006l53.506,86.542c1.617,2.616,4.45,4.136,7.419,4.136
			c0.758,0,1.527-0.099,2.285-0.305c3.725-1.011,6.343-4.351,6.435-8.211l2.412-101.718
			C178.247,127.273,174.434,123.276,169.619,123.162z"/>
	</g>
</g>
<g>
	<g>
		<path d="M290.934,107.943l17.211-4.671c4.648-1.264,7.395-6.056,6.133-10.705c-1.262-4.65-6.053-7.395-10.704-6.134
			l-51.259,13.912c-4.649,1.262-7.395,6.054-6.133,10.704c1.054,3.885,4.573,6.441,8.413,6.441c0.756,0,1.526-0.099,2.291-0.307
			l17.211-4.671l23.262,85.711c1.054,3.885,4.573,6.441,8.412,6.441c0.756,0,1.526-0.099,2.291-0.307
			c4.649-1.262,7.395-6.054,6.133-10.703L290.934,107.943z"/>
	</g>
</g>
<g>
</g>
<g>
</g>
<g>
</g>
<g>
</g>
<g>
</g>
<g>
</g>
<g>
</g>
<g>
</g>
<g>
</g>
<g>
</g>
<g>
</g>
<g>
</g>
<g>
</g>
<g>
</g>
<g>
</g>
</svg>
