<?xml version="1.0" encoding="iso-8859-1"?>
<!-- Generator: Adobe Illustrator 19.0.0, SVG Export Plug-In . SVG Version: 6.00 Build 0)  -->
<svg version="1.1" id="Layer_1" xmlns="http://www.w3.org/2000/svg" xmlns:xlink="http://www.w3.org/1999/xlink" x="0px" y="0px"
	 viewBox="0 0 512 512" style="enable-background:new 0 0 512 512;" xml:space="preserve">
<g>
	<g>
		<path d="M420.142,150.44H308.858l57.242-24.749c2.04-0.882,3.646-2.539,4.465-4.605c0.818-2.066,0.783-4.373-0.099-6.414
			l-47.4-109.616c-1.837-4.247-6.768-6.204-11.017-4.366L145.904,72.517c-4.248,1.837-6.204,6.769-4.367,11.017l28.921,66.906
			H91.857c-4.628,0-8.38,3.752-8.38,8.38v48.011c0,4.628,3.752,8.38,8.38,8.38h15.524V495.24H95.104c-4.628,0-8.38,3.752-8.38,8.38
			c0,4.628,3.752,8.38,8.38,8.38h20.657h280.478h20.657c4.628,0,8.38-3.752,8.38-8.38c0-4.628-3.752-8.38-8.38-8.38H404.62V215.212
			h15.524c4.628,0,8.38-3.752,8.38-8.38V158.82C428.523,154.192,424.771,150.44,420.142,150.44z M160.248,84.576L311.008,19.4
			l40.748,94.233l-85.132,36.807h-77.905L160.248,84.576z M387.859,495.24H124.142V215.212h263.717V495.24z M411.762,198.451
			h-15.524H115.761h-15.524v-31.25h311.525V198.451z"/>
	</g>
</g>
<g>
	<g>
		<path d="M256,279.437c-41.789,0-75.788,33.998-75.788,75.788S214.21,431.013,256,431.013c41.789,0,75.787-33.998,75.787-75.788
			S297.789,279.437,256,279.437z M256,414.253c-32.547,0-59.027-26.48-59.027-59.027s26.48-59.027,59.027-59.027
			c32.547,0,59.026,26.48,59.026,59.027S288.547,414.253,256,414.253z"/>
	</g>
</g>
<g>
	<g>
		<path d="M273.551,315.297h-35.103c-4.628,0-8.38,3.752-8.38,8.38s3.752,8.38,8.38,8.38h35.103c4.628,0,8.38-3.752,8.38-8.38
			S278.179,315.297,273.551,315.297z"/>
	</g>
</g>
<g>
	<g>
		<path d="M291.301,346.846h-70.602c-4.628,0-8.38,3.752-8.38,8.38c0,4.628,3.752,8.38,8.38,8.38h70.602
			c4.628,0,8.38-3.752,8.38-8.38C299.681,350.598,295.929,346.846,291.301,346.846z"/>
	</g>
</g>
<g>
	<g>
		<path d="M306.707,54.099c-1.837-4.248-6.769-6.204-11.017-4.367L229.539,78.33c-4.248,1.837-6.204,6.77-4.367,11.019
			c1.369,3.166,4.455,5.057,7.697,5.057c1.11,0,2.238-0.221,3.321-0.691l66.151-28.598
			C306.589,63.279,308.543,58.347,306.707,54.099z"/>
	</g>
</g>
<g>
	<g>
		<path d="M322.76,91.228c-1.837-4.248-6.77-6.203-11.017-4.367l-66.151,28.598c-4.248,1.837-6.204,6.77-4.367,11.019
			c1.369,3.166,4.455,5.057,7.697,5.057c1.11,0,2.238-0.221,3.321-0.691l66.151-28.598C322.641,100.41,324.597,95.477,322.76,91.228
			z"/>
	</g>
</g>
<g>
	<g>
		<circle cx="197.487" cy="101.325" r="8.38"/>
	</g>
</g>
<g>
	<g>
		<circle cx="213.533" cy="138.456" r="8.38"/>
	</g>
</g>
<g>
</g>
<g>
</g>
<g>
</g>
<g>
</g>
<g>
</g>
<g>
</g>
<g>
</g>
<g>
</g>
<g>
</g>
<g>
</g>
<g>
</g>
<g>
</g>
<g>
</g>
<g>
</g>
<g>
</g>
</svg>
